<svg width="858" height="304" viewBox="0 0 858 304" fill="none" xmlns="http://www.w3.org/2000/svg">
<path d="M542.831 87.4615C547.983 87.4645 553.026 88.1769 557.955 89.5992C562.9 91.0207 567.209 92.991 570.857 95.5022L571.532 95.9665L571.21 96.7192L568.015 104.2L567.547 105.298L566.547 104.642C562.909 102.255 559.03 100.462 554.902 99.2586L554.902 99.2576C550.777 98.0596 546.755 97.4599 542.825 97.4576C535.153 97.4531 529.562 98.938 525.905 101.75L525.902 101.753C522.222 104.561 520.425 108.123 520.422 112.509C520.421 115.841 521.417 118.421 523.35 120.348L523.353 120.351C525.379 122.387 527.939 123.965 531.043 125.07C534.245 126.184 538.571 127.415 544.034 128.752L544.038 128.753C550.559 130.376 555.856 131.987 559.924 133.569L559.923 133.569C564.075 135.169 567.609 137.628 570.501 140.924L570.776 141.245C573.577 144.595 574.927 149.027 574.923 154.426C574.921 159.091 573.652 163.352 571.121 167.184L571.122 167.185C568.589 171.049 564.73 174.074 559.604 176.276L559.605 176.277C554.474 178.498 548.223 179.581 540.871 179.577C534.181 179.573 527.762 178.505 521.622 176.354L521.618 176.353C515.506 174.187 510.7 171.326 507.263 167.732L506.773 167.219L507.095 166.587L510.766 159.364L511.392 158.133L512.366 159.112C515.439 162.198 519.557 164.717 524.762 166.663C529.976 168.605 535.349 169.577 540.877 169.58C548.705 169.585 554.394 168.151 558.107 165.421L558.109 165.419C561.853 162.687 563.68 159.21 563.683 154.933C563.685 151.613 562.68 149.062 560.76 147.172L560.758 147.17C558.718 145.154 556.207 143.602 553.204 142.516L553.2 142.515C550.116 141.386 545.822 140.146 540.292 138.799L540.282 138.797C533.592 137.101 528.23 135.462 524.214 133.87L524.214 133.871C520.107 132.251 516.576 129.773 513.641 126.443L513.639 126.443C510.624 123.011 509.178 118.413 509.181 112.759C509.184 108.099 510.411 103.84 512.866 100.008L512.868 100.006C515.362 96.1433 519.162 93.0979 524.194 90.8393C529.248 88.5667 535.476 87.4572 542.831 87.4615Z" fill="#595959" stroke="white" stroke-width="2"/>
<path d="M615.543 109.797C621.396 109.8 626.656 110.948 631.311 113.246C635.999 115.561 639.705 118.959 642.423 123.423L642.917 124.233L642.133 124.768L635.419 129.349L634.581 129.921L634.022 129.074C631.935 125.912 629.301 123.568 626.098 122.008L626.095 122.006C622.866 120.415 619.352 119.611 615.537 119.609C610.871 119.606 606.714 120.648 603.043 122.7C599.371 124.758 596.506 127.689 594.446 131.505L594.444 131.508C592.377 135.303 591.334 139.646 591.331 144.562C591.328 149.554 592.367 153.924 594.427 157.691C596.481 161.445 599.344 164.344 603.017 166.399L603.02 166.401C606.686 168.465 610.84 169.504 615.508 169.507C619.331 169.509 622.851 168.751 626.082 167.226C629.281 165.697 631.914 163.368 634.004 160.211L634.562 159.366L635.399 159.935L642.107 164.487L642.895 165.022L642.399 165.835C639.676 170.305 635.955 173.707 631.238 176.034L631.235 176.035C626.534 178.335 621.283 179.469 615.502 179.466C608.77 179.462 602.717 177.994 597.349 175.041L597.348 175.04C591.999 172.087 587.798 167.936 584.758 162.584L584.756 162.58C581.735 157.208 580.234 151.195 580.238 144.555C580.242 137.898 581.749 131.903 584.78 126.604L584.78 126.603C587.826 121.293 592.031 117.148 597.383 114.201L597.384 114.201C602.756 111.254 608.811 109.793 615.543 109.797Z" fill="#595959" stroke="white" stroke-width="2"/>
<path d="M678.986 109.826C687.845 109.831 694.79 112.059 699.652 116.638L699.651 116.638C704.55 121.215 706.927 127.939 706.922 136.626L706.897 178.888L696.317 178.882L696.322 170.682C694.354 173.075 691.847 175.015 688.813 176.499L688.814 176.5C684.732 178.515 679.915 179.496 674.399 179.492C666.835 179.488 660.688 177.677 656.063 173.943L656.063 173.942C651.438 170.201 649.132 165.224 649.136 159.112C649.139 153.19 651.292 148.356 655.623 144.708C659.972 141.019 666.779 139.271 675.816 139.276L695.937 139.288L695.938 136.253C695.942 130.701 694.397 126.636 691.459 123.888L691.458 123.886C688.5 121.109 684.108 119.642 678.1 119.638C674.006 119.636 670.077 120.31 666.299 121.662C662.518 123.016 659.291 124.88 656.607 127.227L655.707 128.014L655.091 126.988L651.062 120.274L650.624 119.546L651.273 118.996C654.757 116.045 658.917 113.788 663.746 112.215C668.565 110.624 673.65 109.823 678.986 109.826ZM676.067 147.988C670.456 147.985 666.425 148.968 663.821 150.783C661.282 152.553 659.975 155.201 659.973 158.899C659.971 162.471 661.311 165.224 664.009 167.273L664.008 167.273C666.723 169.325 670.615 170.412 675.797 170.415C680.701 170.418 684.842 169.303 688.276 167.097L688.279 167.094C691.68 164.929 694.233 161.812 695.926 157.691L695.932 148L676.067 147.988Z" fill="#595959" stroke="white" stroke-width="2"/>
<path d="M723.888 83.0045L723.832 178.898L712.885 178.892L712.94 82.9981L723.888 83.0045Z" fill="#595959" stroke="white" stroke-width="2"/>
<path d="M763.281 109.872C769.603 109.875 775.297 111.349 780.357 114.309L780.358 114.31C785.403 117.268 789.369 121.393 792.237 126.657L792.237 126.658C795.111 131.941 796.532 137.951 796.529 144.67L796.529 144.71L796.417 147.497L796.378 148.458L740.848 148.426C741.5 154.587 744.007 159.576 748.364 163.442C752.966 167.515 758.796 169.579 765.923 169.583C769.927 169.585 773.586 168.877 776.897 167.47L777.516 167.195C780.583 165.782 783.254 163.783 785.529 161.205L786.285 160.347L787.035 161.212L792.091 167.046L792.651 167.692L792.101 168.346C789.032 171.991 785.203 174.776 780.643 176.685L780.644 176.686C776.079 178.601 771.078 179.545 765.661 179.542C758.668 179.538 752.439 178.054 746.992 175.043L746.992 175.042C741.575 172.045 737.336 167.888 734.295 162.591L734.294 162.587C731.269 157.268 729.769 151.271 729.773 144.631C729.777 137.982 731.216 131.992 734.123 126.695L734.124 126.695C737.044 121.39 741.05 117.241 746.128 114.288L746.129 114.287C751.228 111.334 756.96 109.868 763.281 109.872ZM763.276 119.574C757.296 119.57 752.294 121.416 748.217 125.091L747.825 125.453C743.931 129.129 741.606 133.86 740.872 139.714L785.802 139.74C785.074 133.887 782.737 129.154 778.831 125.473L778.828 125.47C774.707 121.552 769.544 119.577 763.276 119.574Z" fill="#595959" stroke="white" stroke-width="2"/>
<path d="M492.09 106.339L492.081 121.179L505.133 121.187L505.123 138.132L492.071 138.124L492.061 156.07C492.06 157.906 492.559 159.248 493.459 160.213C494.371 161.123 495.543 161.597 497.057 161.598C499.269 161.599 501.094 161.05 502.585 159.996L503.665 159.232L504.105 160.479L509.043 174.481L509.302 175.214L508.655 175.646C506.839 176.855 504.639 177.702 502.085 178.211L502.084 178.21C499.559 178.784 496.932 179.07 494.205 179.068C486.75 179.064 480.803 177.23 476.498 173.44L476.491 173.435C472.147 169.536 470.059 163.748 470.063 156.267L470.074 138.112L461.76 138.107L461.769 121.161L470.084 121.166L470.093 106.326L492.09 106.339Z" fill="#595959" stroke="white" stroke-width="2"/>
<path d="M413.758 96.9835L413.743 122.186C414.637 121.509 415.585 120.902 416.587 120.364C420.537 118.176 424.984 117.093 429.903 117.095C434.459 117.098 438.611 118.041 442.339 119.942L442.691 120.118C446.294 121.973 449.126 124.8 451.184 128.561L451.388 128.931C453.463 132.791 454.466 137.658 454.462 143.475L454.443 177.102L432.446 177.089L432.463 146.725C432.466 142.755 431.64 140.114 430.207 138.561L430.194 138.546L430.181 138.531C428.794 136.901 426.816 136.039 424.102 136.037C422.16 136.036 420.4 136.486 418.802 137.38L418.788 137.388L418.775 137.395C417.228 138.198 416 139.47 415.1 141.268C414.21 143.046 413.73 145.438 413.728 148.503L413.711 177.078L391.714 177.065L391.761 96.9707L413.758 96.9835Z" fill="#595959" stroke="white" stroke-width="2"/>
<path d="M346.22 117.048C351.191 117.051 355.505 118.062 359.12 120.127L359.121 120.127C360.601 120.943 361.93 121.949 363.109 123.138L363.112 118.005L384.162 118.017L384.134 165.642C384.128 176.619 381.162 184.937 375.05 190.38C368.982 195.784 360.466 198.414 349.647 198.407C344.096 198.404 338.786 197.761 333.72 196.473L333.716 196.472C328.71 195.182 324.387 193.275 320.765 190.737L320.048 190.235L320.452 189.458L327.723 175.464L328.282 174.386L329.232 175.141C331.358 176.831 333.975 178.188 337.103 179.196L337.736 179.393L337.748 179.396C341.239 180.494 344.612 181.038 347.868 181.04C353.158 181.043 356.731 179.872 358.844 177.761L359.052 177.553C360.96 175.588 362.024 172.738 362.125 168.863C361.199 169.68 360.193 170.401 359.105 171.022C355.484 173.088 351.164 174.096 346.187 174.093C340.981 174.09 336.155 172.928 331.726 170.602L331.718 170.598L331.71 170.593C327.354 168.194 323.829 164.883 321.145 160.671L321.139 160.662L321.134 160.653C318.501 156.332 317.204 151.268 317.208 145.501C317.211 139.734 318.513 134.703 321.156 130.451L321.158 130.447C323.847 126.165 327.38 122.852 331.75 120.525L331.756 120.522C336.187 118.201 341.014 117.045 346.22 117.048ZM350.946 134.943C348.702 134.942 346.722 135.402 344.986 136.301L344.973 136.308L344.959 136.314C343.234 137.143 341.869 138.348 340.848 139.937C339.904 141.513 339.417 143.361 339.416 145.514C339.414 147.664 339.898 149.511 340.837 151.087C341.862 152.687 343.235 153.935 344.975 154.838C346.71 155.739 348.689 156.202 350.934 156.203C353.179 156.204 355.117 155.745 356.776 154.853L356.789 154.845C358.527 153.945 359.861 152.704 360.815 151.116L360.823 151.104L360.83 151.092C361.84 149.517 362.358 147.673 362.359 145.527C362.36 143.381 361.844 141.537 360.837 139.961L360.829 139.949L360.821 139.936C359.873 138.354 358.55 137.152 356.826 136.321L356.806 136.311L356.786 136.3C355.129 135.407 353.192 134.945 350.946 134.943Z" fill="#595959" stroke="white" stroke-width="2"/>
<path d="M311.07 117.977L311.035 177.022L289.037 177.009L289.072 117.964L311.07 117.977ZM300.087 90.3953C303.914 90.3976 307.107 91.4325 309.57 93.5835C312.046 95.6752 313.291 98.4149 313.289 101.717C313.287 105.143 312.054 108.04 309.599 110.338L309.599 110.339C307.195 112.586 303.98 113.658 300.073 113.656C296.23 113.654 293.026 112.575 290.562 110.339C288.11 108.114 286.869 105.318 286.871 102.018C286.873 98.7169 288.117 95.9232 290.572 93.7013C293.039 91.4686 296.243 90.3931 300.087 90.3953Z" fill="#595959" stroke="white" stroke-width="2"/>
<path d="M283.082 117.016L283.071 137.179L281.919 137.002C281.043 136.867 280.288 136.802 279.65 136.801L279.595 136.801L279.54 136.795C278.952 136.73 278.288 136.695 277.546 136.695C273.668 136.692 270.623 137.755 268.314 139.805L268.308 139.81L268.302 139.815C266.087 141.721 264.858 144.954 264.855 149.791L264.839 176.998L242.842 176.985L242.877 117.94L263.927 117.952L263.923 123.237C264.974 122.238 266.144 121.36 267.435 120.608L267.807 120.396C271.778 118.122 276.551 117.013 282.082 117.016L283.082 117.016Z" fill="#595959" stroke="white" stroke-width="2"/>
<path d="M217.297 61.8998C223.341 61.9034 228.72 62.7555 233.112 65.8631C237.519 68.9817 240.766 74.2493 242.822 82.7145C243.856 86.9705 243.267 92.3958 241.476 97.7049C239.68 103.03 236.636 108.351 232.628 112.407L232.613 112.422L232.596 112.437C230.301 114.567 228.008 116.381 226.277 117.495C226.256 117.509 226.229 117.541 226.222 117.594C226.217 117.646 226.234 117.667 226.24 117.673C234.148 125.359 237.216 133.953 236.305 142.58C235.399 151.163 230.571 159.631 222.985 167.17L222.986 167.171C217.64 172.502 209.258 175.862 197.465 178.215C197.337 178.241 197.205 178.254 197.073 178.254L155.687 178.23C154.124 178.229 153.165 176.515 153.984 175.183L165.614 156.253C165.978 155.661 166.624 155.3 167.32 155.3L196.997 155.318C203.482 152.796 207.151 149.086 208.715 145.06C210.281 141.027 209.801 136.507 207.646 132.235L207.634 132.21L207.622 132.183C207.108 131 205.748 130.084 202.889 129.514L202.298 129.404L186.121 129.394C184.566 129.393 183.606 127.697 184.408 126.364L194.711 109.234C195.072 108.633 195.723 108.264 196.425 108.265L205.134 108.27C209.81 106.404 212.859 103.837 214.636 100.899C216.413 97.9629 216.973 94.5661 216.512 90.9423L216.507 90.9042L216.506 90.8662C216.376 88.2661 214.283 86.2296 209.829 83.9306C209.83 83.9311 209.83 83.9315 209.831 83.9316L209.832 83.9326L172.021 83.9105L160.969 108.244L179.049 108.254C180.609 108.255 181.567 109.962 180.756 111.295L138.426 180.794C137.137 182.91 133.912 181.258 134.876 178.976L155.832 129.377L135.223 129.365C133.771 129.364 132.804 127.865 133.402 126.541L153.07 82.9962L140.923 64.9744C140.027 63.6456 140.98 61.8554 142.582 61.8563L217.297 61.8998Z" fill="#595959" stroke="white" stroke-width="2"/>
<path d="M125.032 64.1192C126.557 64.1201 127.999 64.8173 128.947 66.0121L141.64 82.0126C142.754 83.4169 143.031 85.3104 142.366 86.975L123.577 134.012C122.79 135.982 124.241 138.124 126.362 138.125L129.482 138.127C133.216 138.129 135.63 142.074 133.933 145.4L111.371 189.607C108.949 194.352 101.776 192.524 101.919 187.199L105.112 68.9757C105.185 66.2668 107.403 64.1091 110.113 64.1105L125.032 64.1192Z" fill="#18C95F" stroke="white" stroke-width="2"/>
<mask id="path-14-outside-1_23_268" maskUnits="userSpaceOnUse" x="384.976" y="231.926" width="132" height="50" fill="black">
<rect fill="white" x="384.976" y="231.926" width="132" height="50"/>
<path d="M387.573 278.926L387.573 235.289L405.599 235.289C408.866 235.289 411.685 235.929 414.058 237.207C416.444 238.471 418.283 240.24 419.576 242.512C420.869 244.771 421.515 247.399 421.515 250.396C421.515 253.407 420.854 256.042 419.533 258.301C418.227 260.545 416.359 262.285 413.93 263.521C411.501 264.757 408.617 265.375 405.279 265.375L394.157 265.375L394.157 257.065L403.319 257.065C404.91 257.065 406.238 256.788 407.303 256.234C408.383 255.68 409.2 254.906 409.754 253.911C410.308 252.903 410.585 251.731 410.585 250.396C410.585 249.046 410.308 247.882 409.754 246.902C409.2 245.907 408.383 245.14 407.303 244.6C406.224 244.061 404.896 243.791 403.319 243.791L398.12 243.791L398.12 278.926L387.573 278.926ZM430.314 278.926L430.314 235.289L448.339 235.289C451.606 235.289 454.426 235.879 456.798 237.058C459.185 238.223 461.024 239.899 462.317 242.086C463.609 244.259 464.256 246.838 464.256 249.821C464.256 252.846 463.595 255.417 462.274 257.534C460.953 259.636 459.078 261.241 456.649 262.349C454.22 263.443 451.344 263.99 448.02 263.99L436.621 263.99L436.621 255.68L446.06 255.68C447.65 255.68 448.979 255.474 450.044 255.062C451.123 254.636 451.94 253.997 452.494 253.144C453.048 252.278 453.325 251.17 453.325 249.821C453.325 248.471 453.048 247.356 452.494 246.475C451.94 245.58 451.123 244.913 450.044 244.473C448.964 244.018 447.636 243.791 446.06 243.791L440.861 243.791L440.861 278.926L430.314 278.926ZM454.881 258.982L465.747 278.926L454.241 278.926L443.588 258.982L454.881 258.982ZM514.826 257.107C514.826 261.909 513.903 265.978 512.057 269.316C510.21 272.654 507.71 275.19 504.557 276.923C501.417 278.656 497.895 279.522 493.988 279.522C490.068 279.522 486.538 278.649 483.399 276.902C480.26 275.154 477.767 272.619 475.92 269.295C474.088 265.957 473.172 261.894 473.172 257.107C473.172 252.306 474.088 248.237 475.92 244.899C477.767 241.561 480.26 239.025 483.399 237.292C486.538 235.559 490.068 234.693 493.988 234.693C497.895 234.693 501.417 235.559 504.557 237.292C507.71 239.025 510.21 241.561 512.057 244.899C513.903 248.237 514.826 252.306 514.826 257.107ZM504.045 257.107C504.045 254.267 503.64 251.866 502.831 249.906C502.035 247.946 500.885 246.461 499.379 245.453C497.887 244.444 496.091 243.94 493.988 243.94C491.9 243.94 490.103 244.444 488.598 245.453C487.092 246.461 485.934 247.946 485.125 249.906C484.329 251.866 483.932 254.267 483.932 257.107C483.932 259.948 484.329 262.349 485.125 264.309C485.934 266.269 487.092 267.754 488.598 268.762C490.103 269.771 491.9 270.275 493.988 270.275C496.091 270.275 497.887 269.771 499.379 268.762C500.885 267.754 502.035 266.269 502.831 264.309C503.64 262.349 504.045 259.948 504.045 257.107Z"/>
</mask>
<path d="M387.573 278.926L387.573 235.289L405.599 235.289C408.866 235.289 411.685 235.929 414.058 237.207C416.444 238.471 418.283 240.24 419.576 242.512C420.869 244.771 421.515 247.399 421.515 250.396C421.515 253.407 420.854 256.042 419.533 258.301C418.227 260.545 416.359 262.285 413.93 263.521C411.501 264.757 408.617 265.375 405.279 265.375L394.157 265.375L394.157 257.065L403.319 257.065C404.91 257.065 406.238 256.788 407.303 256.234C408.383 255.68 409.2 254.906 409.754 253.911C410.308 252.903 410.585 251.731 410.585 250.396C410.585 249.046 410.308 247.882 409.754 246.902C409.2 245.907 408.383 245.14 407.303 244.6C406.224 244.061 404.896 243.791 403.319 243.791L398.12 243.791L398.12 278.926L387.573 278.926ZM430.314 278.926L430.314 235.289L448.339 235.289C451.606 235.289 454.426 235.879 456.798 237.058C459.185 238.223 461.024 239.899 462.317 242.086C463.609 244.259 464.256 246.838 464.256 249.821C464.256 252.846 463.595 255.417 462.274 257.534C460.953 259.636 459.078 261.241 456.649 262.349C454.22 263.443 451.344 263.99 448.02 263.99L436.621 263.99L436.621 255.68L446.06 255.68C447.65 255.68 448.979 255.474 450.044 255.062C451.123 254.636 451.94 253.997 452.494 253.144C453.048 252.278 453.325 251.17 453.325 249.821C453.325 248.471 453.048 247.356 452.494 246.475C451.94 245.58 451.123 244.913 450.044 244.473C448.964 244.018 447.636 243.791 446.06 243.791L440.861 243.791L440.861 278.926L430.314 278.926ZM454.881 258.982L465.747 278.926L454.241 278.926L443.588 258.982L454.881 258.982ZM514.826 257.107C514.826 261.909 513.903 265.978 512.057 269.316C510.21 272.654 507.71 275.19 504.557 276.923C501.417 278.656 497.895 279.522 493.988 279.522C490.068 279.522 486.538 278.649 483.399 276.902C480.26 275.154 477.767 272.619 475.92 269.295C474.088 265.957 473.172 261.894 473.172 257.107C473.172 252.306 474.088 248.237 475.92 244.899C477.767 241.561 480.26 239.025 483.399 237.292C486.538 235.559 490.068 234.693 493.988 234.693C497.895 234.693 501.417 235.559 504.557 237.292C507.71 239.025 510.21 241.561 512.057 244.899C513.903 248.237 514.826 252.306 514.826 257.107ZM504.045 257.107C504.045 254.267 503.64 251.866 502.831 249.906C502.035 247.946 500.885 246.461 499.379 245.453C497.887 244.444 496.091 243.94 493.988 243.94C491.9 243.94 490.103 244.444 488.598 245.453C487.092 246.461 485.934 247.946 485.125 249.906C484.329 251.866 483.932 254.267 483.932 257.107C483.932 259.948 484.329 262.349 485.125 264.309C485.934 266.269 487.092 267.754 488.598 268.762C490.103 269.771 491.9 270.275 493.988 270.275C496.091 270.275 497.887 269.771 499.379 268.762C500.885 267.754 502.035 266.269 502.831 264.309C503.64 262.349 504.045 259.948 504.045 257.107Z" fill="#18C95F"/>
<path d="M387.573 278.926L385.573 278.926L385.573 280.926L387.573 280.926L387.573 278.926ZM387.573 235.289L387.573 233.289L385.573 233.289L385.573 235.289L387.573 235.289ZM414.058 237.207L413.109 238.968L413.115 238.971L413.121 238.974L414.058 237.207ZM419.576 242.512L417.838 243.501L417.84 243.506L419.576 242.512ZM419.533 258.301L417.807 257.291L417.805 257.294L419.533 258.301ZM413.93 263.521L414.837 265.303L414.837 265.303L413.93 263.521ZM394.157 265.375L392.157 265.375L392.157 267.375L394.157 267.375L394.157 265.375ZM394.157 257.065L394.157 255.065L392.157 255.065L392.157 257.065L394.157 257.065ZM407.303 256.234L406.39 254.454L406.381 254.459L407.303 256.234ZM409.754 253.911L411.501 254.885L411.507 254.874L409.754 253.911ZM409.754 246.902L408.006 247.875L408.012 247.886L409.754 246.902ZM407.303 244.6L406.409 246.389L406.409 246.389L407.303 244.6ZM398.12 243.791L398.12 241.791L396.12 241.791L396.12 243.791L398.12 243.791ZM398.12 278.926L398.12 280.926L400.12 280.926L400.12 278.926L398.12 278.926ZM387.573 278.926L389.573 278.926L389.573 235.289L387.573 235.289L385.573 235.289L385.573 278.926L387.573 278.926ZM387.573 235.289L387.573 237.289L405.599 237.289L405.599 235.289L405.599 233.289L387.573 233.289L387.573 235.289ZM405.599 235.289L405.599 237.289C408.604 237.289 411.084 237.876 413.109 238.968L414.058 237.207L415.006 235.446C412.287 233.981 409.127 233.289 405.599 233.289L405.599 235.289ZM414.058 237.207L413.121 238.974C415.183 240.067 416.739 241.57 417.838 243.501L419.576 242.512L421.314 241.524C419.827 238.909 417.704 236.876 414.994 235.44L414.058 237.207ZM419.576 242.512L417.84 243.506C418.935 245.418 419.515 247.694 419.515 250.396L421.515 250.396L423.515 250.396C423.515 247.104 422.802 244.123 421.312 241.519L419.576 242.512ZM421.515 250.396L419.515 250.396C419.515 253.107 418.923 255.382 417.807 257.291L419.533 258.301L421.26 259.31C422.786 256.702 423.515 253.708 423.515 250.396L421.515 250.396ZM419.533 258.301L417.805 257.294C416.702 259.189 415.127 260.668 413.023 261.738L413.93 263.521L414.837 265.303C417.591 263.902 419.752 261.901 421.262 259.307L419.533 258.301ZM413.93 263.521L413.023 261.738C410.931 262.803 408.372 263.375 405.279 263.375L405.279 265.375L405.279 267.375C408.863 267.375 412.07 266.711 414.837 265.303L413.93 263.521ZM405.279 265.375L405.279 263.375L394.157 263.375L394.157 265.375L394.157 267.375L405.279 267.375L405.279 265.375ZM394.157 265.375L396.157 265.375L396.157 257.065L394.157 257.065L392.157 257.065L392.157 265.375L394.157 265.375ZM394.157 257.065L394.157 259.065L403.319 259.065L403.319 257.065L403.319 255.065L394.157 255.065L394.157 257.065ZM403.319 257.065L403.319 259.065C405.131 259.065 406.798 258.751 408.226 258.008L407.303 256.234L406.381 254.459C405.678 254.825 404.689 255.065 403.319 255.065L403.319 257.065ZM407.303 256.234L408.216 258.013C409.623 257.291 410.741 256.248 411.501 254.885L409.754 253.911L408.006 252.938C407.658 253.564 407.143 254.068 406.39 254.455L407.303 256.234ZM409.754 253.911L411.507 254.874C412.247 253.527 412.585 252.013 412.585 250.396L410.585 250.396L408.585 250.396C408.585 251.449 408.368 252.279 408.001 252.949L409.754 253.911ZM410.585 250.396L412.585 250.396C412.585 248.77 412.249 247.252 411.495 245.917L409.754 246.902L408.012 247.886C408.366 248.511 408.585 249.323 408.585 250.396L410.585 250.396ZM409.754 246.902L411.501 245.928C410.739 244.561 409.614 243.52 408.198 242.812L407.303 244.6L406.409 246.389C407.152 246.761 407.66 247.254 408.006 247.875L409.754 246.902ZM407.303 244.6L408.198 242.812C406.769 242.097 405.115 241.791 403.319 241.791L403.319 243.791L403.319 245.791C404.677 245.791 405.679 246.024 406.409 246.389L407.303 244.6ZM403.319 243.791L403.319 241.791L398.12 241.791L398.12 243.791L398.12 245.791L403.319 245.791L403.319 243.791ZM398.12 243.791L396.12 243.791L396.12 278.926L398.12 278.926L400.12 278.926L400.12 243.791L398.12 243.791ZM398.12 278.926L398.12 276.926L387.573 276.926L387.573 278.926L387.573 280.926L398.12 280.926L398.12 278.926ZM430.314 278.926L428.314 278.926L428.314 280.926L430.314 280.926L430.314 278.926ZM430.314 235.289L430.314 233.289L428.314 233.289L428.314 235.289L430.314 235.289ZM456.798 237.058L455.908 238.849L455.914 238.852L455.921 238.855L456.798 237.058ZM462.317 242.086L460.595 243.104L460.598 243.109L462.317 242.086ZM462.274 257.534L463.967 258.598L463.971 258.593L462.274 257.534ZM456.649 262.349L457.47 264.173L457.479 264.169L456.649 262.349ZM436.621 263.99L434.621 263.99L434.621 265.99L436.621 265.99L436.621 263.99ZM436.621 255.68L436.621 253.68L434.621 253.68L434.621 255.68L436.621 255.68ZM450.044 255.062L450.765 256.927L450.778 256.922L450.044 255.062ZM452.494 253.144L454.171 254.234L454.175 254.228L454.179 254.222L452.494 253.144ZM452.494 246.475L450.794 247.528L450.797 247.534L450.801 247.54L452.494 246.475ZM450.044 244.473L449.268 246.316L449.278 246.32L449.289 246.324L450.044 244.473ZM440.861 243.791L440.861 241.791L438.861 241.791L438.861 243.791L440.861 243.791ZM440.861 278.926L440.861 280.926L442.861 280.926L442.861 278.926L440.861 278.926ZM454.881 258.982L456.637 258.026L456.068 256.982L454.881 256.982L454.881 258.982ZM465.747 278.926L465.747 280.926L469.114 280.926L467.503 277.969L465.747 278.926ZM454.241 278.926L452.477 279.868L453.042 280.926L454.241 280.926L454.241 278.926ZM443.588 258.982L443.588 256.982L440.252 256.982L441.824 259.925L443.588 258.982ZM430.314 278.926L432.314 278.926L432.314 235.289L430.314 235.289L428.314 235.289L428.314 278.926L430.314 278.926ZM430.314 235.289L430.314 237.289L448.339 237.289L448.339 235.289L448.339 233.289L430.314 233.289L430.314 235.289ZM448.339 235.289L448.339 237.289C451.368 237.289 453.869 237.836 455.908 238.849L456.798 237.058L457.688 235.267C454.983 233.922 451.845 233.289 448.339 233.289L448.339 235.289ZM456.798 237.058L455.921 238.855C457.972 239.856 459.511 241.269 460.595 243.104L462.317 242.086L464.038 241.069C462.537 238.529 460.397 236.589 457.675 235.26L456.798 237.058ZM462.317 242.086L460.598 243.109C461.676 244.921 462.256 247.132 462.256 249.821L464.256 249.821L466.256 249.821C466.256 246.543 465.543 243.598 464.036 241.064L462.317 242.086ZM464.256 249.821L462.256 249.821C462.256 252.552 461.662 254.737 460.577 256.475L462.274 257.534L463.971 258.593C465.528 256.097 466.256 253.141 466.256 249.821L464.256 249.821ZM462.274 257.534L460.581 256.47C459.483 258.216 457.921 259.571 455.819 260.529L456.649 262.349L457.479 264.169C460.235 262.911 462.423 261.056 463.967 258.598L462.274 257.534ZM456.649 262.349L455.828 260.525C453.713 261.478 451.129 261.99 448.02 261.99L448.02 263.99L448.02 265.99C451.559 265.99 454.727 265.408 457.47 264.173L456.649 262.349ZM448.02 263.99L448.02 261.99L436.621 261.99L436.621 263.99L436.621 265.99L448.02 265.99L448.02 263.99ZM436.621 263.99L438.621 263.99L438.621 255.68L436.621 255.68L434.621 255.68L434.621 263.99L436.621 263.99ZM436.621 255.68L436.621 257.68L446.06 257.68L446.06 255.68L446.06 253.68L436.621 253.68L436.621 255.68ZM446.06 255.68L446.06 257.68C447.807 257.68 449.399 257.456 450.765 256.927L450.044 255.062L449.323 253.197C448.558 253.492 447.494 253.68 446.06 253.68L446.06 255.68ZM450.044 255.062L450.778 256.922C452.187 256.366 453.359 255.483 454.171 254.234L452.494 253.144L450.817 252.054C450.521 252.51 450.059 252.906 449.31 253.202L450.044 255.062ZM452.494 253.144L454.179 254.222C454.994 252.947 455.325 251.435 455.325 249.821L453.325 249.821L451.325 249.821C451.325 250.905 451.102 251.608 450.809 252.067L452.494 253.144ZM453.325 249.821L455.325 249.821C455.325 248.204 454.993 246.692 454.187 245.41L452.494 246.475L450.801 247.54C451.103 248.02 451.325 248.738 451.325 249.821L453.325 249.821ZM452.494 246.475L454.195 245.423C453.394 244.13 452.226 243.203 450.799 242.621L450.044 244.473L449.289 246.324C450.021 246.623 450.486 247.031 450.794 247.528L452.494 246.475ZM450.044 244.473L450.82 242.629C449.426 242.042 447.816 241.791 446.06 241.791L446.06 243.791L446.06 245.791C447.457 245.791 448.503 245.994 449.268 246.316L450.044 244.473ZM446.06 243.791L446.06 241.791L440.861 241.791L440.861 243.791L440.861 245.791L446.06 245.791L446.06 243.791ZM440.861 243.791L438.861 243.791L438.861 278.926L440.861 278.926L442.861 278.926L442.861 243.791L440.861 243.791ZM440.861 278.926L440.861 276.926L430.314 276.926L430.314 278.926L430.314 280.926L440.861 280.926L440.861 278.926ZM454.881 258.982L453.124 259.939L463.991 279.883L465.747 278.926L467.503 277.969L456.637 258.026L454.881 258.982ZM465.747 278.926L465.747 276.926L454.241 276.926L454.241 278.926L454.241 280.926L465.747 280.926L465.747 278.926ZM454.241 278.926L456.005 277.983L445.352 258.04L443.588 258.982L441.824 259.925L452.477 279.868L454.241 278.926ZM443.588 258.982L443.588 260.982L454.881 260.982L454.881 258.982L454.881 256.982L443.588 256.982L443.588 258.982ZM512.057 269.316L510.306 268.348L510.306 268.348L512.057 269.316ZM504.557 276.923L503.593 275.17L503.59 275.172L504.557 276.923ZM483.399 276.902L484.371 275.154L484.371 275.154L483.399 276.902ZM475.92 269.295L474.167 270.257L474.172 270.266L475.92 269.295ZM475.92 244.899L474.17 243.931L474.167 243.936L475.92 244.899ZM483.399 237.292L484.365 239.043L484.365 239.043L483.399 237.292ZM504.557 237.292L503.59 239.043L503.593 239.045L504.557 237.292ZM512.057 244.899L510.306 245.867L510.306 245.867L512.057 244.899ZM502.831 249.906L500.977 250.658L500.982 250.669L502.831 249.906ZM499.379 245.453L498.259 247.109L498.266 247.114L499.379 245.453ZM488.598 245.453L489.711 247.114L489.711 247.114L488.598 245.453ZM485.125 249.906L483.276 249.142L483.271 249.154L485.125 249.906ZM485.125 264.309L483.271 265.061L483.276 265.073L485.125 264.309ZM488.598 268.762L489.711 267.101L489.711 267.101L488.598 268.762ZM499.379 268.762L498.266 267.101L498.259 267.106L499.379 268.762ZM502.831 264.309L500.982 263.546L500.977 263.557L502.831 264.309ZM514.826 257.107L512.826 257.107C512.826 261.656 511.952 265.374 510.306 268.348L512.057 269.316L513.807 270.284C515.854 266.583 516.826 262.161 516.826 257.107L514.826 257.107ZM512.057 269.316L510.306 268.348C508.631 271.376 506.395 273.63 503.593 275.17L504.557 276.923L505.52 278.676C509.025 276.75 511.789 273.932 513.807 270.284L512.057 269.316ZM504.557 276.923L503.59 275.172C500.773 276.727 497.588 277.522 493.988 277.522L493.988 279.522L493.988 281.522C498.202 281.522 502.062 280.584 505.523 278.674L504.557 276.923ZM493.988 279.522L493.988 277.522C490.376 277.522 487.187 276.721 484.371 275.154L483.399 276.902L482.426 278.649C485.89 280.577 489.759 281.522 493.988 281.522L493.988 279.522ZM483.399 276.902L484.371 275.154C481.577 273.599 479.345 271.341 477.668 268.324L475.92 269.295L474.172 270.266C476.189 273.896 478.942 276.71 482.426 278.649L483.399 276.902ZM475.92 269.295L477.673 268.333C476.039 265.356 475.172 261.643 475.172 257.107L473.172 257.107L471.172 257.107C471.172 262.146 472.136 266.558 474.167 270.257L475.92 269.295ZM473.172 257.107L475.172 257.107C475.172 252.557 476.04 248.837 477.673 245.861L475.92 244.899L474.167 243.936C472.136 247.637 471.172 252.056 471.172 257.107L473.172 257.107ZM475.92 244.899L477.67 245.867C479.347 242.836 481.577 240.582 484.365 239.043L483.399 237.292L482.432 235.541C478.942 237.468 476.187 240.285 474.17 243.931L475.92 244.899ZM483.399 237.292L484.365 239.043C487.182 237.488 490.374 236.693 493.988 236.693L493.988 234.693L493.988 232.693C489.762 232.693 485.895 233.63 482.432 235.541L483.399 237.292ZM493.988 234.693L493.988 236.693C497.588 236.693 500.773 237.488 503.59 239.043L504.557 237.292L505.523 235.541C502.062 233.631 498.202 232.693 493.988 232.693L493.988 234.693ZM504.557 237.292L503.593 239.045C506.395 240.585 508.631 242.839 510.306 245.867L512.057 244.899L513.807 243.931C511.789 240.283 509.025 237.465 505.52 235.539L504.557 237.292ZM512.057 244.899L510.306 245.867C511.952 248.841 512.826 252.559 512.826 257.107L514.826 257.107L516.826 257.107C516.826 252.054 515.854 247.632 513.807 243.931L512.057 244.899ZM504.045 257.107L506.045 257.107C506.045 254.089 505.617 251.412 504.679 249.142L502.831 249.906L500.982 250.669C501.664 252.32 502.045 254.445 502.045 257.107L504.045 257.107ZM502.831 249.906L504.684 249.154C503.764 246.887 502.382 245.057 500.492 243.791L499.379 245.453L498.266 247.114C499.387 247.865 500.306 249.004 500.977 250.658L502.831 249.906ZM499.379 245.453L500.499 243.796C498.624 242.528 496.421 241.94 493.988 241.94L493.988 243.94L493.988 245.94C495.76 245.94 497.151 246.36 498.259 247.109L499.379 245.453ZM493.988 243.94L493.988 241.94C491.566 241.94 489.368 242.53 487.485 243.791L488.598 245.453L489.711 247.114C490.839 246.359 492.235 245.94 493.988 245.94L493.988 243.94ZM488.598 245.453L487.485 243.791C485.598 245.055 484.211 246.88 483.276 249.142L485.125 249.906L486.973 250.669C487.658 249.011 488.587 247.867 489.711 247.114L488.598 245.453ZM485.125 249.906L483.271 249.154C482.352 251.419 481.932 254.092 481.932 257.107L483.932 257.107L485.932 257.107C485.932 254.441 486.306 252.313 486.978 250.658L485.125 249.906ZM483.932 257.107L481.932 257.107C481.932 260.123 482.352 262.795 483.271 265.061L485.125 264.309L486.978 263.557C486.306 261.902 485.932 259.774 485.932 257.107L483.932 257.107ZM485.125 264.309L483.276 265.073C484.211 267.335 485.598 269.16 487.485 270.424L488.598 268.762L489.711 267.101C488.587 266.348 487.658 265.204 486.973 263.546L485.125 264.309ZM488.598 268.762L487.485 270.424C489.368 271.685 491.566 272.275 493.988 272.275L493.988 270.275L493.988 268.275C492.235 268.275 490.839 267.856 489.711 267.101L488.598 268.762ZM493.988 270.275L493.988 272.275C496.421 272.275 498.624 271.687 500.499 270.419L499.379 268.762L498.259 267.106C497.151 267.855 495.76 268.275 493.988 268.275L493.988 270.275ZM499.379 268.762L500.492 270.424C502.382 269.158 503.764 267.328 504.684 265.061L502.831 264.309L500.977 263.557C500.306 265.211 499.387 266.35 498.266 267.101L499.379 268.762ZM502.831 264.309L504.679 265.073C505.617 262.803 506.045 260.126 506.045 257.107L504.045 257.107L502.045 257.107C502.045 259.77 501.664 261.895 500.982 263.546L502.831 264.309Z" fill="white" mask="url(#path-14-outside-1_23_268)"/>
</svg>
