<svg width="246" height="240" viewBox="0 0 246 240" fill="none" xmlns="http://www.w3.org/2000/svg">
<path d="M113.322 164.407C112.974 164.407 112.651 164.587 112.469 164.884L91.095 199.727C90.6862 200.393 91.1657 201.25 91.9474 201.25H128.226H166.193C166.258 201.25 166.325 201.243 166.389 201.23C187.08 197.094 201.421 191.255 210.456 182.234C237.025 155.792 243.442 123.399 215.35 96.8721C214.839 96.3901 214.941 95.5264 215.544 95.1667C218.537 93.3818 222.923 89.9811 227.355 85.8645C241.021 72.0187 248.237 49.368 244.801 35.2583C237.664 5.94241 222.597 0 201.581 0H68.6998C67.8986 0 67.4227 0.895167 67.8709 1.55934L90.2977 34.7961C90.4916 35.0834 90.5229 35.4506 90.3804 35.7665L55.163 113.872C54.8646 114.533 55.3486 115.283 56.0746 115.283H94.6537C95.3691 115.283 95.8531 116.012 95.5751 116.671L54.3105 214.511C53.8292 215.652 55.4427 216.477 56.0863 215.419L136.542 83.1287C136.947 82.4623 136.467 81.6091 135.687 81.6091H101.348C100.621 81.6091 100.137 80.8581 100.438 80.1961L120.546 35.8453C120.708 35.4879 121.064 35.2583 121.457 35.2583H188.653C188.811 35.2583 188.968 35.2963 189.108 35.3682C197.035 39.4314 201.69 43.4354 201.976 49.1239C203.692 62.5543 197.852 74.7546 180.744 81.5387C180.628 81.5848 180.502 81.6091 180.377 81.6091H164.478C164.127 81.6091 163.802 81.7932 163.621 82.0942L144.6 113.768C144.2 114.434 144.68 115.283 145.457 115.283H175.328C175.384 115.283 175.44 115.287 175.494 115.297C181.361 116.288 184.889 118.107 186.245 121.225C194.203 136.978 190.073 155.205 166.467 164.339C166.353 164.383 166.229 164.407 166.106 164.407H113.322Z" fill="#595959"/>
<path d="M6.07372 6.92076C6.11667 5.29534 7.44668 4 9.07267 4H41.2024C42.1175 4 42.9826 4.4177 43.5517 5.13435L68.5696 36.6384C69.2384 37.4805 69.4052 38.6162 69.0069 39.6151L32.924 130.114C32.1385 132.084 33.5897 134.225 35.7107 134.225H53.7487C55.9888 134.225 57.4387 136.591 56.4217 138.587L5.67319 238.181C4.222 241.029 -0.0831801 239.935 0.00124747 236.74L6.07372 6.92076Z" fill="#18C95F"/>
</svg>
