<svg width="140" height="130" viewBox="0 0 140 130" fill="none" xmlns="http://www.w3.org/2000/svg">
<path d="M64.9354 93.4474C64.2399 93.4475 63.5945 93.809 63.2309 94.4019L52.8435 111.342C52.0262 112.675 52.9856 114.388 54.549 114.387L72.6109 114.383L94.0489 114.377C94.1802 114.377 94.3127 114.364 94.4414 114.338C106.126 111.986 114.232 108.672 119.346 103.564C133.956 89.0182 137.839 71.3076 123.598 56.5213C122.624 55.5097 122.822 53.7502 123.961 52.9281C125.433 51.8651 127.178 50.43 128.936 48.7966C136.702 40.9263 140.799 28.0532 138.845 20.0354C134.784 3.37682 126.219 0.00208666 114.274 0.00519857L41.4412 0.0241738C39.8387 0.0245913 38.8874 1.81531 39.7842 3.1434L50.5819 19.134C50.9698 19.7086 51.0326 20.443 50.7478 21.075L31.9812 62.7175C31.3846 64.0413 32.3531 65.5396 33.8051 65.5393L51.3587 65.5347C52.7896 65.5343 53.758 66.993 53.2022 68.3115L38.1378 104.05C37.1756 106.332 40.4029 107.982 41.6897 105.865L75.9969 49.4315C76.8072 48.0985 75.8473 46.3922 74.2873 46.3926L59.5377 46.3964C58.0839 46.3968 57.1154 44.8951 57.7155 43.5709L67.8404 21.228C68.1644 20.513 68.8766 20.0537 69.6615 20.0535L106.588 20.0438C106.904 20.0438 107.215 20.1175 107.494 20.2634C111.815 22.5179 114.346 24.7621 114.506 27.9214C115.475 35.4867 112.224 42.3663 102.696 46.2435C102.465 46.3378 102.214 46.3853 101.964 46.3854L94.0082 46.3874C93.306 46.3876 92.6554 46.756 92.294 47.3581L83.2066 62.4966C82.4063 63.8298 83.3669 65.5263 84.9219 65.5259L99.2513 65.5222C99.3617 65.5222 99.4728 65.5312 99.5815 65.5501C102.846 66.1169 104.814 67.1468 105.576 68.8975C110.073 77.7925 107.785 88.0777 94.5905 93.3034C94.363 93.3936 94.1154 93.4398 93.8707 93.4398L64.9354 93.4474Z" fill="#595959"/>
<path d="M3.09517 6.20162C3.15188 4.03438 4.92479 2.30681 7.09276 2.30625L22.0116 2.30236C23.2317 2.30204 24.3852 2.85857 25.1443 3.81376L37.8514 19.8041C38.7436 20.9268 38.9665 22.4413 38.4357 23.7734L19.6864 70.8259C18.6396 73.4531 20.5753 76.3073 23.4033 76.3066L26.5243 76.3058C29.5113 76.305 31.4453 79.4595 30.0897 82.1211L7.56458 126.348C5.63046 130.145 -0.109867 128.688 0.00160797 124.428L3.09517 6.20162Z" fill="#18C95F"/>
</svg>
