<svg width="134" height="130" viewBox="0 0 134 130" fill="none" xmlns="http://www.w3.org/2000/svg">
<path d="M58.6129 93.4487C57.9174 93.4489 57.272 93.8103 56.9084 94.4032L46.521 111.343C45.7037 112.676 46.663 114.389 48.2265 114.389L87.7264 114.378C87.8577 114.378 87.9901 114.365 88.1189 114.339C99.8032 111.987 107.909 108.673 113.023 103.565C127.634 89.0195 131.516 71.3089 117.275 56.5226C116.301 55.511 116.5 53.7515 117.638 52.9294C119.111 51.8664 120.856 50.4313 122.614 48.7979C130.379 40.9276 134.477 28.0546 132.522 20.0368C128.461 3.37815 119.896 0.003414 107.952 0.00652592L31.7084 0.0263896C30.1059 0.0268071 29.1546 1.81753 30.0514 3.14562L40.8491 19.1363C41.237 19.7108 41.2998 20.4452 41.015 21.0772L22.2484 62.7197C21.6518 64.0435 22.6203 65.5418 24.0723 65.5415L41.9841 65.5368C43.3142 65.5365 44.2741 66.8105 43.9069 68.089L30.5213 114.687C29.8772 116.929 32.9406 118.272 34.1525 116.278L74.7897 49.4315C75.6001 48.0985 74.6402 46.3922 73.0802 46.3926L58.3305 46.3964C56.8767 46.3968 55.9083 44.8951 56.5083 43.5709L66.6332 21.228C66.9572 20.513 67.6694 20.0537 68.4544 20.0535L100.266 20.0452C100.581 20.0451 100.892 20.1188 101.172 20.2647C105.492 22.5192 108.024 24.7635 108.183 27.9227C109.152 35.488 105.901 42.3677 96.3739 46.2449C96.1423 46.3391 95.8911 46.3866 95.641 46.3867L87.6857 46.3888C86.9835 46.3889 86.3328 46.7574 85.9714 47.3594L76.8841 62.4979C76.0838 63.8312 77.0444 65.5277 78.5994 65.5273L92.9288 65.5235C93.0392 65.5235 93.1502 65.5326 93.259 65.5514C96.5237 66.1183 98.4911 67.1481 99.2533 68.8988C103.75 77.7938 101.463 88.079 88.268 93.3048C88.0404 93.3949 87.7929 93.4411 87.5481 93.4412L58.6129 93.4487Z" fill="black"/>
<path d="M21.5633 0.0290348C22.8785 0.0286922 24.1098 0.674852 24.8567 1.75733L36.3562 18.4233C37.1539 19.5793 37.2868 21.0691 36.7063 22.3481L18.135 63.2659C16.9328 65.9145 18.8698 68.9198 21.7784 68.919L33.9528 68.9159C36.6032 68.9152 38.5215 71.4456 37.8049 73.9973L27.2174 111.702C26.7329 113.427 25.1597 114.62 23.3674 114.62L6.88717 114.624C5.68534 114.625 4.54706 114.085 3.78716 113.154L0.928929 109.651C0.346408 108.938 0.0281398 108.045 0.0278998 107.123L0.00104212 4.03465C0.000466572 1.82551 1.79086 0.0341861 4 0.0336106L21.5633 0.0290348Z" fill="#18C95F"/>
</svg>
