<svg width="846" height="267" viewBox="0 0 846 267" fill="none" xmlns="http://www.w3.org/2000/svg">
<path d="M537.067 67.2266C542.22 67.2296 547.263 67.942 552.192 69.3643C557.136 70.7858 561.445 72.7561 565.094 75.2673L565.768 75.7316L565.446 76.4843L562.252 83.9649L561.783 85.0632L560.784 84.4074C557.145 82.02 553.267 80.2266 549.138 79.0236L549.138 79.0227C545.014 77.8247 540.992 77.2249 537.061 77.2226C529.389 77.2182 523.798 78.7031 520.142 81.5155L520.139 81.5184C516.458 84.3258 514.662 87.8881 514.659 92.274C514.657 95.6059 515.654 98.1859 517.586 100.113L517.59 100.116C519.615 102.152 522.175 103.73 525.28 104.835C528.481 105.949 532.808 107.18 538.271 108.517L538.274 108.518C544.796 110.142 550.092 111.752 554.16 113.334L554.159 113.334C558.312 114.934 561.845 117.393 564.737 120.689L565.012 121.01C567.813 124.36 569.163 128.792 569.16 134.191C569.157 138.856 567.889 143.117 565.358 146.949L565.359 146.95C562.825 150.814 558.966 153.839 553.841 156.041L553.842 156.042C548.711 158.264 542.46 159.346 535.107 159.342C528.417 159.338 521.999 158.271 515.858 156.119L515.854 156.119C509.742 153.952 504.936 151.091 501.5 147.497L501.01 146.984L501.332 146.352L505.003 139.129L505.628 137.898L506.602 138.877C509.675 141.963 513.794 144.482 518.998 146.428C524.213 148.37 529.586 149.342 535.113 149.346C542.941 149.35 548.63 147.916 552.343 145.186L552.346 145.184C556.089 142.452 557.917 138.975 557.919 134.698C557.921 131.378 556.916 128.827 554.996 126.937L554.994 126.935C552.955 124.919 550.444 123.367 547.44 122.281L547.436 122.28C544.353 121.151 540.059 119.911 534.528 118.564L534.519 118.562C527.828 116.866 522.466 115.227 518.45 113.635L518.45 113.636C514.343 112.016 510.812 109.538 507.877 106.209L507.875 106.208C504.861 102.776 503.414 98.1784 503.418 92.5243C503.42 87.8643 504.648 83.6053 507.103 79.7735L507.105 79.7706C509.598 75.9084 513.399 72.863 518.43 70.6044C523.484 68.3318 529.713 67.2223 537.067 67.2266Z" fill="#595959" stroke="white" stroke-width="2"/>
<path d="M609.78 89.5617C615.633 89.5651 620.893 90.7135 625.547 93.0113C630.235 95.3262 633.942 98.7241 636.659 103.188L637.154 103.999L636.369 104.533L629.656 109.114L628.818 109.686L628.259 108.839C626.171 105.677 623.537 103.333 620.335 101.773L620.331 101.771C617.103 100.18 613.588 99.3765 609.774 99.3742C605.107 99.3715 600.95 100.413 597.28 102.466C593.608 104.523 590.743 107.454 588.683 111.27L588.681 111.273C586.614 115.068 585.571 119.411 585.568 124.327C585.565 129.319 586.604 133.689 588.664 137.456C590.718 141.21 593.58 144.109 597.253 146.164L597.256 146.166C600.922 148.23 605.077 149.269 609.745 149.272C613.568 149.274 617.087 148.516 620.318 146.991C623.517 145.462 626.151 143.133 628.24 139.976L628.798 139.131L629.635 139.7L636.343 144.252L637.131 144.787L636.636 145.6C633.912 150.07 630.192 153.472 625.474 155.799L625.471 155.8C620.771 158.101 615.52 159.234 609.739 159.231C603.007 159.227 596.953 157.759 591.585 154.806L591.584 154.805C586.235 151.852 582.034 147.701 578.995 142.349L578.993 142.346C575.971 136.973 574.47 130.96 574.474 124.32C574.478 117.663 575.986 111.668 579.017 106.369L579.017 106.368C582.062 101.059 586.268 96.913 591.62 93.9662L591.621 93.9662C596.992 91.019 603.047 89.5578 609.78 89.5617Z" fill="#595959" stroke="white" stroke-width="2"/>
<path d="M673.222 89.5911C682.082 89.5963 689.026 91.8237 693.888 96.403L693.887 96.403C698.786 100.98 701.163 107.704 701.158 116.392L701.133 158.653L690.553 158.647L690.558 150.447C688.591 152.841 686.084 154.78 683.05 156.264L683.051 156.265C678.968 158.28 674.152 159.261 668.635 159.257C661.072 159.253 654.924 157.442 650.299 153.708L650.299 153.707C645.674 149.967 643.369 144.989 643.372 138.877C643.376 132.955 645.529 128.121 649.859 124.473C654.208 120.784 661.015 119.036 670.052 119.041L690.173 119.053L690.175 116.018C690.178 110.466 688.633 106.401 685.696 103.653L685.695 103.651C682.736 100.875 678.345 99.4066 672.337 99.4031C668.242 99.4007 664.313 100.076 660.536 101.427C656.754 102.781 653.528 104.645 650.843 106.992L649.943 107.779L649.328 106.753L645.298 100.039L644.86 99.3109L645.509 98.7615C648.993 95.8101 653.154 93.5527 657.983 91.9797C662.801 90.3888 667.886 89.588 673.222 89.5911ZM670.304 127.753C664.692 127.75 660.661 128.733 658.057 130.548C655.518 132.318 654.212 134.966 654.209 138.664C654.207 142.236 655.547 144.989 658.246 147.038L658.245 147.038C660.96 149.09 664.851 150.177 670.034 150.18C674.938 150.183 679.079 149.068 682.512 146.862L682.515 146.859C685.917 144.694 688.47 141.577 690.162 137.456L690.168 127.765L670.304 127.753Z" fill="#595959" stroke="white" stroke-width="2"/>
<path d="M718.124 62.7696L718.068 158.663L707.121 158.657L707.177 62.7632L718.124 62.7696Z" fill="#595959" stroke="white" stroke-width="2"/>
<path d="M757.518 89.6367C763.84 89.6404 769.534 91.1138 774.593 94.0744L774.594 94.0754C779.64 97.0335 783.606 101.159 786.474 106.422L786.474 106.423C789.347 111.706 790.769 117.716 790.765 124.435L790.765 124.475L790.653 127.263L790.614 128.223L735.084 128.191C735.737 134.352 738.244 139.341 742.601 143.207C747.202 147.28 753.033 149.344 760.16 149.348C764.163 149.351 767.823 148.642 771.134 147.236L771.753 146.96C774.819 145.547 777.491 143.548 779.765 140.97L780.522 140.112L781.271 140.977L786.327 146.811L786.887 147.457L786.337 148.111C783.268 151.756 779.44 154.541 774.879 156.45L774.88 156.451C770.316 158.366 765.314 159.31 759.897 159.307C752.904 159.303 746.675 157.82 741.229 154.808L741.229 154.807C735.811 151.81 731.573 147.653 728.532 142.356L728.53 142.352C725.506 137.033 724.005 131.036 724.009 124.397C724.013 117.747 725.453 111.757 728.359 106.461L728.36 106.46C731.28 101.155 735.287 97.0061 740.365 94.0535L740.366 94.0525C745.464 91.0991 751.196 89.6331 757.518 89.6367ZM757.512 99.3389C751.533 99.3354 746.531 101.181 742.453 104.856L742.061 105.219C738.168 108.894 735.842 113.625 735.109 119.479L780.038 119.505C779.31 113.653 776.974 108.919 773.067 105.238L773.064 105.235C768.943 101.318 763.78 99.3426 757.512 99.3389Z" fill="#595959" stroke="white" stroke-width="2"/>
<path d="M486.326 86.1043L486.317 100.944L499.369 100.952L499.359 117.897L486.307 117.889L486.297 135.835C486.296 137.671 486.795 139.014 487.695 139.978C488.608 140.888 489.779 141.362 491.294 141.363C493.506 141.364 495.331 140.815 496.821 139.761L497.902 138.997L498.341 140.244L503.279 154.246L503.539 154.98L502.891 155.411C501.075 156.62 498.876 157.467 496.321 157.976L496.32 157.975C493.795 158.549 491.169 158.835 488.442 158.833C480.987 158.829 475.039 156.995 470.734 153.206L470.727 153.2C466.384 149.301 464.295 143.513 464.3 136.032L464.31 117.877L455.996 117.872L456.006 100.926L464.32 100.931L464.329 86.0915L486.326 86.1043Z" fill="#595959" stroke="white" stroke-width="2"/>
<path d="M407.994 76.7486L407.98 101.951C408.873 101.274 409.821 100.667 410.824 100.129C414.774 97.9407 419.221 96.8577 424.139 96.8606C428.696 96.8633 432.848 97.8062 436.576 99.7067L436.927 99.8827C440.53 101.739 443.362 104.565 445.42 108.326L445.624 108.696C447.7 112.556 448.702 117.423 448.699 123.24L448.679 156.867L426.682 156.854L426.7 126.49C426.702 122.521 425.876 119.879 424.444 118.326L424.43 118.311L424.418 118.296C423.03 116.666 421.052 115.804 418.339 115.803C416.397 115.801 414.636 116.251 413.038 117.145L413.025 117.153L413.011 117.16C411.464 117.963 410.237 119.235 409.337 121.033C408.446 122.811 407.966 125.203 407.964 128.268L407.948 156.843L385.951 156.831L385.997 76.7358L407.994 76.7486Z" fill="#595959" stroke="white" stroke-width="2"/>
<path d="M340.457 96.813C345.427 96.8159 349.741 97.8268 353.356 99.8918L353.357 99.8918C354.838 100.709 356.167 101.714 357.346 102.903L357.349 97.7701L378.399 97.7823L378.371 145.407C378.365 156.384 375.398 164.702 369.286 170.145C363.218 175.549 354.703 178.179 343.883 178.172C338.333 178.169 333.023 177.526 327.956 176.238L327.953 176.237C322.947 174.947 318.623 173.04 315.002 170.502L314.284 170L314.688 169.223L321.959 155.229L322.518 154.151L323.469 154.907C325.594 156.596 328.211 157.953 331.34 158.961L331.972 159.158L331.984 159.162C335.476 160.259 338.849 160.803 342.104 160.805C347.395 160.808 350.967 159.637 353.081 157.526L353.289 157.318C355.197 155.353 356.26 152.503 356.361 148.628C355.435 149.445 354.43 150.166 353.341 150.787C349.721 152.853 345.401 153.861 340.424 153.858C335.217 153.855 330.391 152.694 325.963 150.367L325.954 150.363L325.946 150.358C321.59 147.959 318.065 144.648 315.382 140.436L315.376 140.427L315.371 140.418C312.738 136.097 311.441 131.033 311.444 125.266C311.448 119.499 312.75 114.468 315.392 110.216L315.394 110.212C318.083 105.93 321.617 102.617 325.986 100.29L325.992 100.287C330.423 97.9656 335.251 96.8099 340.457 96.813ZM345.183 114.708C342.938 114.707 340.959 115.167 339.222 116.066L339.209 116.073L339.196 116.079C337.47 116.908 336.106 118.113 335.084 119.702C334.141 121.278 333.653 123.126 333.652 125.279C333.651 127.429 334.134 129.276 335.074 130.852C336.098 132.452 337.471 133.7 339.211 134.603C340.947 135.504 342.926 135.967 345.17 135.968C347.416 135.969 349.354 135.51 351.012 134.618L351.026 134.61C352.764 133.71 354.097 132.469 355.051 130.881L355.059 130.869L355.067 130.857C356.076 129.282 356.594 127.438 356.596 125.292C356.597 123.146 356.081 121.302 355.073 119.726L355.066 119.714L355.058 119.701C354.11 118.119 352.786 116.917 351.063 116.086L351.042 116.076L351.023 116.065C349.365 115.172 347.428 114.71 345.183 114.708Z" fill="#595959" stroke="white" stroke-width="2"/>
<path d="M305.306 97.742L305.272 156.787L283.274 156.774L283.308 97.7292L305.306 97.742ZM294.323 70.1604C298.15 70.1627 301.344 71.1976 303.807 73.3486C306.283 75.4403 307.527 78.18 307.525 81.4826C307.523 84.9083 306.29 87.8054 303.836 90.1035L303.836 90.1045C301.431 92.3515 298.216 93.4234 294.31 93.4212C290.466 93.4189 287.263 92.3397 284.799 90.1041C282.347 87.8792 281.105 85.0834 281.107 81.7826C281.109 78.482 282.354 75.6883 284.808 73.4664C287.275 71.2337 290.48 70.1582 294.323 70.1604Z" fill="#595959" stroke="white" stroke-width="2"/>
<path d="M277.319 96.7814L277.307 116.944L276.156 116.767C275.279 116.632 274.524 116.567 273.886 116.567L273.832 116.566L273.776 116.561C273.188 116.495 272.524 116.46 271.782 116.46C267.905 116.458 264.859 117.52 262.551 119.57L262.545 119.576L262.539 119.58C260.323 121.486 259.095 124.72 259.092 129.556L259.076 156.763L237.079 156.75L237.113 97.7052L258.163 97.7175L258.16 103.002C259.21 102.003 260.38 101.125 261.671 100.373L262.043 100.161C266.015 97.8876 270.788 96.7776 276.319 96.7808L277.319 96.7814Z" fill="#595959" stroke="white" stroke-width="2"/>
<path d="M211.533 41.6649C217.578 41.6685 222.956 42.5206 227.348 45.6282C231.755 48.7468 235.002 54.0144 237.058 62.4796C238.092 66.7356 237.504 72.1609 235.713 77.47C233.916 82.7947 230.873 88.1164 226.864 92.1719L226.85 92.1875L226.833 92.2022C224.537 94.332 222.244 96.1464 220.514 97.26C220.492 97.2738 220.465 97.3057 220.459 97.3596C220.453 97.4108 220.47 97.4319 220.476 97.4377C228.384 105.125 231.452 113.718 230.542 122.345C229.636 130.928 224.807 139.396 217.222 146.935L217.223 146.936C211.876 152.267 203.495 155.627 191.702 157.981C191.573 158.006 191.441 158.019 191.309 158.019L149.923 157.995C148.36 157.994 147.402 156.28 148.22 154.948L159.85 136.019C160.214 135.426 160.861 135.065 161.556 135.065L191.234 135.083C197.718 132.561 201.388 128.851 202.952 124.825C204.518 120.792 204.038 116.272 201.883 112L201.87 111.975L201.859 111.948C201.345 110.765 199.984 109.849 197.126 109.279L196.534 109.169L180.357 109.159C178.802 109.159 177.843 107.462 178.644 106.129L188.947 88.9994C189.309 88.3978 189.959 88.0294 190.662 88.0297L199.371 88.0348C204.047 86.1694 207.096 83.6017 208.873 80.6644C210.649 77.728 211.21 74.3312 210.749 70.7074L210.744 70.6694L210.742 70.6313C210.613 68.0312 208.52 65.9947 204.065 63.6957C204.066 63.6962 204.067 63.6966 204.067 63.6967L204.068 63.6977L166.258 63.6756L155.205 88.009L173.286 88.0196C174.845 88.0205 175.804 89.7274 174.993 91.0596L132.662 160.559C131.374 162.675 128.149 161.023 129.112 158.741L150.068 109.142L129.46 109.13C128.008 109.129 127.04 107.63 127.638 106.306L147.306 62.7613L135.159 44.7395C134.264 43.4107 135.216 41.6205 136.818 41.6214L211.533 41.6649Z" fill="#595959" stroke="white" stroke-width="2"/>
<path d="M119.268 43.8842C120.793 43.8851 122.235 44.5824 123.183 45.7772L135.876 61.7777C136.99 63.182 137.268 65.0754 136.603 66.7401L117.813 113.777C117.027 115.747 118.477 117.889 120.598 117.89L123.718 117.892C127.452 117.894 129.866 121.839 128.169 125.165L105.607 169.372C103.186 174.117 96.012 172.289 96.1555 166.965L99.3485 48.7408C99.4216 46.0319 101.639 43.8741 104.349 43.8755L119.268 43.8842Z" fill="#18C95F" stroke="white" stroke-width="2"/>
<mask id="path-14-outside-1_41_48" maskUnits="userSpaceOnUse" x="215" y="178" width="491" height="52" fill="black">
<rect fill="white" x="215" y="178" width="491" height="52"/>
<path d="M217.757 227L217.757 183.364L228.304 183.364L228.304 200.878L245.499 200.878L245.499 183.364L256.024 183.364L256.024 227L245.499 227L245.499 209.464L228.304 209.464L228.304 227L217.757 227ZM281.517 227.618C278.08 227.618 275.125 226.915 272.653 225.509C270.196 224.088 268.3 222.114 266.964 219.585C265.643 217.043 264.983 214.095 264.983 210.743C264.983 207.376 265.643 204.429 266.964 201.901C268.3 199.358 270.196 197.384 272.653 195.977C275.125 194.557 278.08 193.847 281.517 193.847C284.955 193.847 287.902 194.557 290.359 195.977C292.831 197.384 294.727 199.358 296.048 201.901C297.384 204.429 298.051 207.376 298.051 210.743C298.051 214.095 297.384 217.043 296.048 219.585C294.727 222.114 292.831 224.088 290.359 225.509C287.902 226.915 284.955 227.618 281.517 227.618ZM281.581 219.756C282.831 219.756 283.889 219.372 284.756 218.605C285.622 217.838 286.283 216.773 286.737 215.409C287.206 214.045 287.44 212.469 287.44 210.679C287.44 208.861 287.206 207.27 286.737 205.906C286.283 204.543 285.622 203.477 284.756 202.71C283.889 201.943 282.831 201.56 281.581 201.56C280.288 201.56 279.195 201.943 278.3 202.71C277.419 203.477 276.744 204.543 276.276 205.906C275.821 207.27 275.594 208.861 275.594 210.679C275.594 212.469 275.821 214.045 276.276 215.409C276.744 216.773 277.419 217.838 278.3 218.605C279.195 219.372 280.288 219.756 281.581 219.756ZM306.988 227L306.988 194.273L316.896 194.273L316.896 200.281L317.258 200.281C317.94 198.293 319.091 196.723 320.71 195.572C322.329 194.422 324.261 193.847 326.506 193.847C328.778 193.847 330.724 194.429 332.344 195.594C333.963 196.759 334.993 198.321 335.433 200.281L335.774 200.281C336.385 198.335 337.578 196.78 339.354 195.615C341.129 194.436 343.224 193.847 345.639 193.847C348.736 193.847 351.25 194.841 353.182 196.83C355.113 198.804 356.079 201.517 356.079 204.969L356.079 227L345.66 227L345.66 207.355C345.66 205.722 345.241 204.479 344.403 203.626C343.565 202.76 342.479 202.327 341.143 202.327C339.709 202.327 338.579 202.795 337.756 203.733C336.946 204.656 336.541 205.899 336.541 207.462L336.541 227L326.527 227L326.527 207.249C326.527 205.729 326.115 204.528 325.291 203.648C324.467 202.767 323.381 202.327 322.031 202.327C321.122 202.327 320.319 202.547 319.623 202.987C318.927 203.413 318.381 204.024 317.983 204.82C317.599 205.615 317.408 206.553 317.408 207.632L317.408 227L306.988 227ZM381.434 227.618C378.01 227.618 375.056 226.943 372.57 225.594C370.098 224.23 368.195 222.291 366.86 219.777C365.539 217.249 364.878 214.244 364.878 210.764C364.878 207.384 365.546 204.429 366.881 201.901C368.216 199.358 370.098 197.384 372.527 195.977C374.956 194.557 377.819 193.847 381.114 193.847C383.444 193.847 385.574 194.209 387.506 194.933C389.438 195.658 391.107 196.73 392.513 198.151C393.919 199.571 395.013 201.325 395.794 203.413C396.576 205.487 396.966 207.866 396.966 210.551L396.966 213.151L368.522 213.151L368.522 207.099L387.272 207.099C387.258 205.991 386.995 205.004 386.483 204.138C385.972 203.271 385.269 202.597 384.374 202.114C383.493 201.616 382.478 201.368 381.327 201.368C380.162 201.368 379.118 201.631 378.195 202.156C377.272 202.668 376.54 203.371 376 204.266C375.461 205.146 375.177 206.148 375.148 207.27L375.148 213.428C375.148 214.763 375.411 215.935 375.937 216.943C376.462 217.938 377.208 218.712 378.174 219.266C379.14 219.82 380.29 220.097 381.625 220.097C382.549 220.097 383.387 219.969 384.14 219.713C384.892 219.457 385.539 219.081 386.079 218.584C386.618 218.087 387.023 217.476 387.293 216.751L396.86 217.028C396.462 219.173 395.588 221.041 394.239 222.632C392.904 224.209 391.15 225.438 388.976 226.318C386.803 227.185 384.289 227.618 381.434 227.618ZM445.965 196.446C445.823 194.884 445.191 193.669 444.069 192.803C442.961 191.922 441.377 191.482 439.317 191.482C437.954 191.482 436.817 191.659 435.908 192.014C434.999 192.369 434.317 192.859 433.863 193.484C433.408 194.095 433.174 194.798 433.16 195.594C433.131 196.247 433.259 196.822 433.543 197.32C433.841 197.817 434.268 198.257 434.822 198.641C435.39 199.01 436.072 199.337 436.867 199.621C437.662 199.905 438.557 200.153 439.552 200.366L443.302 201.219C445.461 201.688 447.364 202.313 449.012 203.094C450.674 203.875 452.066 204.805 453.188 205.885C454.324 206.964 455.184 208.207 455.766 209.614C456.349 211.02 456.647 212.597 456.661 214.344C456.647 217.099 455.951 219.464 454.573 221.439C453.195 223.413 451.214 224.926 448.628 225.977C446.057 227.028 442.954 227.554 439.317 227.554C435.667 227.554 432.485 227.007 429.772 225.913C427.059 224.82 424.949 223.158 423.444 220.928C421.938 218.697 421.164 215.878 421.121 212.469L431.221 212.469C431.306 213.875 431.682 215.047 432.35 215.984C433.018 216.922 433.934 217.632 435.099 218.115C436.277 218.598 437.641 218.839 439.189 218.839C440.61 218.839 441.817 218.648 442.812 218.264C443.82 217.881 444.594 217.348 445.134 216.666C445.674 215.984 445.951 215.203 445.965 214.322C445.951 213.499 445.695 212.795 445.198 212.213C444.701 211.616 443.934 211.105 442.897 210.679C441.874 210.239 440.567 209.834 438.976 209.464L434.417 208.399C430.638 207.533 427.662 206.134 425.489 204.202C423.316 202.256 422.236 199.628 422.25 196.318C422.236 193.619 422.961 191.254 424.424 189.223C425.887 187.192 427.911 185.608 430.496 184.472C433.081 183.335 436.029 182.767 439.339 182.767C442.719 182.767 445.652 183.342 448.138 184.493C450.638 185.629 452.577 187.227 453.955 189.287C455.333 191.347 456.036 193.733 456.064 196.446L445.965 196.446ZM480.886 227.618C477.463 227.618 474.508 226.943 472.022 225.594C469.551 224.23 467.647 222.291 466.312 219.777C464.991 217.249 464.331 214.244 464.331 210.764C464.331 207.384 464.998 204.429 466.333 201.901C467.669 199.358 469.551 197.384 471.98 195.977C474.409 194.557 477.271 193.847 480.566 193.847C482.896 193.847 485.027 194.209 486.958 194.933C488.89 195.658 490.559 196.73 491.966 198.151C493.372 199.571 494.466 201.325 495.247 203.413C496.028 205.487 496.419 207.866 496.419 210.551L496.419 213.151L467.974 213.151L467.974 207.099L486.724 207.099C486.71 205.991 486.447 205.004 485.936 204.138C485.424 203.271 484.721 202.597 483.826 202.114C482.946 201.616 481.93 201.368 480.779 201.368C479.615 201.368 478.571 201.631 477.647 202.156C476.724 202.668 475.993 203.371 475.453 204.266C474.913 205.146 474.629 206.148 474.6 207.27L474.6 213.428C474.6 214.763 474.863 215.935 475.389 216.943C475.914 217.938 476.66 218.712 477.626 219.266C478.592 219.82 479.743 220.097 481.078 220.097C482.001 220.097 482.839 219.969 483.592 219.713C484.345 219.457 484.991 219.081 485.531 218.584C486.071 218.087 486.475 217.476 486.745 216.751L496.312 217.028C495.914 219.173 495.041 221.041 493.691 222.632C492.356 224.209 490.602 225.438 488.429 226.318C486.255 227.185 483.741 227.618 480.886 227.618ZM505.34 227L505.34 194.273L515.461 194.273L515.461 200.239L515.802 200.239C516.398 198.08 517.371 196.474 518.721 195.423C520.07 194.358 521.64 193.825 523.43 193.825C523.913 193.825 524.41 193.861 524.921 193.932C525.432 193.989 525.908 194.081 526.349 194.209L526.349 203.264C525.851 203.094 525.198 202.959 524.388 202.859C523.593 202.76 522.883 202.71 522.258 202.71C521.022 202.71 519.907 202.987 518.913 203.541C517.932 204.081 517.158 204.841 516.59 205.821C516.036 206.787 515.759 207.923 515.759 209.23L515.759 227L505.34 227ZM566.937 194.273L555.709 227L543.777 227L532.569 194.273L543.542 194.273L549.572 216.815L549.913 216.815L555.964 194.273L566.937 194.273ZM574.532 227L574.532 194.273L584.951 194.273L584.951 227L574.532 227ZM579.752 190.459C578.289 190.459 577.032 189.976 575.981 189.01C574.93 188.03 574.404 186.851 574.404 185.473C574.404 184.109 574.93 182.945 575.981 181.979C577.032 180.999 578.289 180.509 579.752 180.509C581.23 180.509 582.487 180.999 583.524 181.979C584.575 182.945 585.1 184.109 585.1 185.473C585.1 186.851 584.575 188.03 583.524 189.01C582.487 189.976 581.23 190.459 579.752 190.459ZM610.46 227.618C607.008 227.618 604.047 226.908 601.575 225.487C599.118 224.067 597.228 222.092 595.907 219.564C594.586 217.021 593.926 214.081 593.926 210.743C593.926 207.391 594.586 204.45 595.907 201.922C597.243 199.379 599.139 197.398 601.596 195.977C604.068 194.557 607.015 193.847 610.439 193.847C613.464 193.847 616.099 194.393 618.344 195.487C620.602 196.581 622.363 198.129 623.628 200.132C624.906 202.121 625.581 204.457 625.652 207.142L615.915 207.142C615.716 205.466 615.148 204.152 614.21 203.2C613.287 202.249 612.079 201.773 610.588 201.773C609.38 201.773 608.322 202.114 607.413 202.795C606.504 203.463 605.794 204.457 605.282 205.778C604.785 207.085 604.537 208.705 604.537 210.636C604.537 212.568 604.785 214.202 605.282 215.537C605.794 216.858 606.504 217.859 607.413 218.541C608.322 219.209 609.38 219.543 610.588 219.543C611.554 219.543 612.406 219.337 613.145 218.925C613.898 218.513 614.515 217.909 614.998 217.114C615.481 216.304 615.787 215.324 615.915 214.173L625.652 214.173C625.552 216.872 624.878 219.23 623.628 221.247C622.392 223.264 620.652 224.834 618.407 225.956C616.177 227.064 613.528 227.618 610.46 227.618ZM649.882 227.618C646.459 227.618 643.504 226.943 641.018 225.594C638.547 224.23 636.643 222.291 635.308 219.777C633.987 217.249 633.327 214.244 633.327 210.764C633.327 207.384 633.994 204.429 635.33 201.901C636.665 199.358 638.547 197.384 640.976 195.977C643.405 194.557 646.267 193.847 649.562 193.847C651.892 193.847 654.023 194.209 655.955 194.933C657.886 195.658 659.555 196.73 660.962 198.151C662.368 199.571 663.462 201.325 664.243 203.413C665.024 205.487 665.415 207.866 665.415 210.551L665.415 213.151L636.97 213.151L636.97 207.099L655.72 207.099C655.706 205.991 655.443 205.004 654.932 204.138C654.42 203.271 653.717 202.597 652.822 202.114C651.942 201.616 650.926 201.368 649.776 201.368C648.611 201.368 647.567 201.631 646.643 202.156C645.72 202.668 644.989 203.371 644.449 204.266C643.909 205.146 643.625 206.148 643.597 207.27L643.597 213.428C643.597 214.763 643.859 215.935 644.385 216.943C644.911 217.938 645.656 218.712 646.622 219.266C647.588 219.82 648.739 220.097 650.074 220.097C650.997 220.097 651.835 219.969 652.588 219.713C653.341 219.457 653.987 219.081 654.527 218.584C655.067 218.087 655.472 217.476 655.741 216.751L665.308 217.028C664.911 219.173 664.037 221.041 662.687 222.632C661.352 224.209 659.598 225.438 657.425 226.318C655.251 227.185 652.737 227.618 649.882 227.618ZM702.909 204.266L693.342 204.521C693.242 203.839 692.972 203.236 692.532 202.71C692.092 202.17 691.517 201.751 690.806 201.453C690.11 201.141 689.301 200.984 688.377 200.984C687.17 200.984 686.14 201.226 685.288 201.709C684.45 202.192 684.038 202.845 684.052 203.669C684.038 204.308 684.294 204.862 684.819 205.331C685.359 205.8 686.318 206.176 687.696 206.46L694.002 207.653C697.269 208.278 699.698 209.315 701.289 210.764C702.894 212.213 703.704 214.131 703.718 216.517C703.704 218.761 703.036 220.714 701.715 222.376C700.409 224.038 698.619 225.331 696.346 226.254C694.073 227.163 691.474 227.618 688.548 227.618C683.874 227.618 680.188 226.659 677.49 224.741C674.805 222.81 673.271 220.224 672.887 216.986L683.178 216.73C683.406 217.923 683.995 218.832 684.947 219.457C685.899 220.082 687.113 220.395 688.59 220.395C689.926 220.395 691.012 220.146 691.85 219.649C692.688 219.152 693.115 218.491 693.129 217.668C693.115 216.929 692.788 216.339 692.149 215.899C691.509 215.445 690.508 215.089 689.144 214.834L683.434 213.747C680.153 213.151 677.71 212.05 676.105 210.445C674.499 208.825 673.704 206.766 673.718 204.266C673.704 202.078 674.286 200.21 675.465 198.662C676.644 197.099 678.321 195.906 680.494 195.082C682.667 194.259 685.231 193.847 688.186 193.847C692.617 193.847 696.112 194.777 698.669 196.638C701.225 198.484 702.639 201.027 702.909 204.266Z"/>
</mask>
<path d="M217.757 227L217.757 183.364L228.304 183.364L228.304 200.878L245.499 200.878L245.499 183.364L256.024 183.364L256.024 227L245.499 227L245.499 209.464L228.304 209.464L228.304 227L217.757 227ZM281.517 227.618C278.08 227.618 275.125 226.915 272.653 225.509C270.196 224.088 268.3 222.114 266.964 219.585C265.643 217.043 264.983 214.095 264.983 210.743C264.983 207.376 265.643 204.429 266.964 201.901C268.3 199.358 270.196 197.384 272.653 195.977C275.125 194.557 278.08 193.847 281.517 193.847C284.955 193.847 287.902 194.557 290.359 195.977C292.831 197.384 294.727 199.358 296.048 201.901C297.384 204.429 298.051 207.376 298.051 210.743C298.051 214.095 297.384 217.043 296.048 219.585C294.727 222.114 292.831 224.088 290.359 225.509C287.902 226.915 284.955 227.618 281.517 227.618ZM281.581 219.756C282.831 219.756 283.889 219.372 284.756 218.605C285.622 217.838 286.283 216.773 286.737 215.409C287.206 214.045 287.44 212.469 287.44 210.679C287.44 208.861 287.206 207.27 286.737 205.906C286.283 204.543 285.622 203.477 284.756 202.71C283.889 201.943 282.831 201.56 281.581 201.56C280.288 201.56 279.195 201.943 278.3 202.71C277.419 203.477 276.744 204.543 276.276 205.906C275.821 207.27 275.594 208.861 275.594 210.679C275.594 212.469 275.821 214.045 276.276 215.409C276.744 216.773 277.419 217.838 278.3 218.605C279.195 219.372 280.288 219.756 281.581 219.756ZM306.988 227L306.988 194.273L316.896 194.273L316.896 200.281L317.258 200.281C317.94 198.293 319.091 196.723 320.71 195.572C322.329 194.422 324.261 193.847 326.506 193.847C328.778 193.847 330.724 194.429 332.344 195.594C333.963 196.759 334.993 198.321 335.433 200.281L335.774 200.281C336.385 198.335 337.578 196.78 339.354 195.615C341.129 194.436 343.224 193.847 345.639 193.847C348.736 193.847 351.25 194.841 353.182 196.83C355.113 198.804 356.079 201.517 356.079 204.969L356.079 227L345.66 227L345.66 207.355C345.66 205.722 345.241 204.479 344.403 203.626C343.565 202.76 342.479 202.327 341.143 202.327C339.709 202.327 338.579 202.795 337.756 203.733C336.946 204.656 336.541 205.899 336.541 207.462L336.541 227L326.527 227L326.527 207.249C326.527 205.729 326.115 204.528 325.291 203.648C324.467 202.767 323.381 202.327 322.031 202.327C321.122 202.327 320.319 202.547 319.623 202.987C318.927 203.413 318.381 204.024 317.983 204.82C317.599 205.615 317.408 206.553 317.408 207.632L317.408 227L306.988 227ZM381.434 227.618C378.01 227.618 375.056 226.943 372.57 225.594C370.098 224.23 368.195 222.291 366.86 219.777C365.539 217.249 364.878 214.244 364.878 210.764C364.878 207.384 365.546 204.429 366.881 201.901C368.216 199.358 370.098 197.384 372.527 195.977C374.956 194.557 377.819 193.847 381.114 193.847C383.444 193.847 385.574 194.209 387.506 194.933C389.438 195.658 391.107 196.73 392.513 198.151C393.919 199.571 395.013 201.325 395.794 203.413C396.576 205.487 396.966 207.866 396.966 210.551L396.966 213.151L368.522 213.151L368.522 207.099L387.272 207.099C387.258 205.991 386.995 205.004 386.483 204.138C385.972 203.271 385.269 202.597 384.374 202.114C383.493 201.616 382.478 201.368 381.327 201.368C380.162 201.368 379.118 201.631 378.195 202.156C377.272 202.668 376.54 203.371 376 204.266C375.461 205.146 375.177 206.148 375.148 207.27L375.148 213.428C375.148 214.763 375.411 215.935 375.937 216.943C376.462 217.938 377.208 218.712 378.174 219.266C379.14 219.82 380.29 220.097 381.625 220.097C382.549 220.097 383.387 219.969 384.14 219.713C384.892 219.457 385.539 219.081 386.079 218.584C386.618 218.087 387.023 217.476 387.293 216.751L396.86 217.028C396.462 219.173 395.588 221.041 394.239 222.632C392.904 224.209 391.15 225.438 388.976 226.318C386.803 227.185 384.289 227.618 381.434 227.618ZM445.965 196.446C445.823 194.884 445.191 193.669 444.069 192.803C442.961 191.922 441.377 191.482 439.317 191.482C437.954 191.482 436.817 191.659 435.908 192.014C434.999 192.369 434.317 192.859 433.863 193.484C433.408 194.095 433.174 194.798 433.16 195.594C433.131 196.247 433.259 196.822 433.543 197.32C433.841 197.817 434.268 198.257 434.822 198.641C435.39 199.01 436.072 199.337 436.867 199.621C437.662 199.905 438.557 200.153 439.552 200.366L443.302 201.219C445.461 201.688 447.364 202.313 449.012 203.094C450.674 203.875 452.066 204.805 453.188 205.885C454.324 206.964 455.184 208.207 455.766 209.614C456.349 211.02 456.647 212.597 456.661 214.344C456.647 217.099 455.951 219.464 454.573 221.439C453.195 223.413 451.214 224.926 448.628 225.977C446.057 227.028 442.954 227.554 439.317 227.554C435.667 227.554 432.485 227.007 429.772 225.913C427.059 224.82 424.949 223.158 423.444 220.928C421.938 218.697 421.164 215.878 421.121 212.469L431.221 212.469C431.306 213.875 431.682 215.047 432.35 215.984C433.018 216.922 433.934 217.632 435.099 218.115C436.277 218.598 437.641 218.839 439.189 218.839C440.61 218.839 441.817 218.648 442.812 218.264C443.82 217.881 444.594 217.348 445.134 216.666C445.674 215.984 445.951 215.203 445.965 214.322C445.951 213.499 445.695 212.795 445.198 212.213C444.701 211.616 443.934 211.105 442.897 210.679C441.874 210.239 440.567 209.834 438.976 209.464L434.417 208.399C430.638 207.533 427.662 206.134 425.489 204.202C423.316 202.256 422.236 199.628 422.25 196.318C422.236 193.619 422.961 191.254 424.424 189.223C425.887 187.192 427.911 185.608 430.496 184.472C433.081 183.335 436.029 182.767 439.339 182.767C442.719 182.767 445.652 183.342 448.138 184.493C450.638 185.629 452.577 187.227 453.955 189.287C455.333 191.347 456.036 193.733 456.064 196.446L445.965 196.446ZM480.886 227.618C477.463 227.618 474.508 226.943 472.022 225.594C469.551 224.23 467.647 222.291 466.312 219.777C464.991 217.249 464.331 214.244 464.331 210.764C464.331 207.384 464.998 204.429 466.333 201.901C467.669 199.358 469.551 197.384 471.98 195.977C474.409 194.557 477.271 193.847 480.566 193.847C482.896 193.847 485.027 194.209 486.958 194.933C488.89 195.658 490.559 196.73 491.966 198.151C493.372 199.571 494.466 201.325 495.247 203.413C496.028 205.487 496.419 207.866 496.419 210.551L496.419 213.151L467.974 213.151L467.974 207.099L486.724 207.099C486.71 205.991 486.447 205.004 485.936 204.138C485.424 203.271 484.721 202.597 483.826 202.114C482.946 201.616 481.93 201.368 480.779 201.368C479.615 201.368 478.571 201.631 477.647 202.156C476.724 202.668 475.993 203.371 475.453 204.266C474.913 205.146 474.629 206.148 474.6 207.27L474.6 213.428C474.6 214.763 474.863 215.935 475.389 216.943C475.914 217.938 476.66 218.712 477.626 219.266C478.592 219.82 479.743 220.097 481.078 220.097C482.001 220.097 482.839 219.969 483.592 219.713C484.345 219.457 484.991 219.081 485.531 218.584C486.071 218.087 486.475 217.476 486.745 216.751L496.312 217.028C495.914 219.173 495.041 221.041 493.691 222.632C492.356 224.209 490.602 225.438 488.429 226.318C486.255 227.185 483.741 227.618 480.886 227.618ZM505.34 227L505.34 194.273L515.461 194.273L515.461 200.239L515.802 200.239C516.398 198.08 517.371 196.474 518.721 195.423C520.07 194.358 521.64 193.825 523.43 193.825C523.913 193.825 524.41 193.861 524.921 193.932C525.432 193.989 525.908 194.081 526.349 194.209L526.349 203.264C525.851 203.094 525.198 202.959 524.388 202.859C523.593 202.76 522.883 202.71 522.258 202.71C521.022 202.71 519.907 202.987 518.913 203.541C517.932 204.081 517.158 204.841 516.59 205.821C516.036 206.787 515.759 207.923 515.759 209.23L515.759 227L505.34 227ZM566.937 194.273L555.709 227L543.777 227L532.569 194.273L543.542 194.273L549.572 216.815L549.913 216.815L555.964 194.273L566.937 194.273ZM574.532 227L574.532 194.273L584.951 194.273L584.951 227L574.532 227ZM579.752 190.459C578.289 190.459 577.032 189.976 575.981 189.01C574.93 188.03 574.404 186.851 574.404 185.473C574.404 184.109 574.93 182.945 575.981 181.979C577.032 180.999 578.289 180.509 579.752 180.509C581.23 180.509 582.487 180.999 583.524 181.979C584.575 182.945 585.1 184.109 585.1 185.473C585.1 186.851 584.575 188.03 583.524 189.01C582.487 189.976 581.23 190.459 579.752 190.459ZM610.46 227.618C607.008 227.618 604.047 226.908 601.575 225.487C599.118 224.067 597.228 222.092 595.907 219.564C594.586 217.021 593.926 214.081 593.926 210.743C593.926 207.391 594.586 204.45 595.907 201.922C597.243 199.379 599.139 197.398 601.596 195.977C604.068 194.557 607.015 193.847 610.439 193.847C613.464 193.847 616.099 194.393 618.344 195.487C620.602 196.581 622.363 198.129 623.628 200.132C624.906 202.121 625.581 204.457 625.652 207.142L615.915 207.142C615.716 205.466 615.148 204.152 614.21 203.2C613.287 202.249 612.079 201.773 610.588 201.773C609.38 201.773 608.322 202.114 607.413 202.795C606.504 203.463 605.794 204.457 605.282 205.778C604.785 207.085 604.537 208.705 604.537 210.636C604.537 212.568 604.785 214.202 605.282 215.537C605.794 216.858 606.504 217.859 607.413 218.541C608.322 219.209 609.38 219.543 610.588 219.543C611.554 219.543 612.406 219.337 613.145 218.925C613.898 218.513 614.515 217.909 614.998 217.114C615.481 216.304 615.787 215.324 615.915 214.173L625.652 214.173C625.552 216.872 624.878 219.23 623.628 221.247C622.392 223.264 620.652 224.834 618.407 225.956C616.177 227.064 613.528 227.618 610.46 227.618ZM649.882 227.618C646.459 227.618 643.504 226.943 641.018 225.594C638.547 224.23 636.643 222.291 635.308 219.777C633.987 217.249 633.327 214.244 633.327 210.764C633.327 207.384 633.994 204.429 635.33 201.901C636.665 199.358 638.547 197.384 640.976 195.977C643.405 194.557 646.267 193.847 649.562 193.847C651.892 193.847 654.023 194.209 655.955 194.933C657.886 195.658 659.555 196.73 660.962 198.151C662.368 199.571 663.462 201.325 664.243 203.413C665.024 205.487 665.415 207.866 665.415 210.551L665.415 213.151L636.97 213.151L636.97 207.099L655.72 207.099C655.706 205.991 655.443 205.004 654.932 204.138C654.42 203.271 653.717 202.597 652.822 202.114C651.942 201.616 650.926 201.368 649.776 201.368C648.611 201.368 647.567 201.631 646.643 202.156C645.72 202.668 644.989 203.371 644.449 204.266C643.909 205.146 643.625 206.148 643.597 207.27L643.597 213.428C643.597 214.763 643.859 215.935 644.385 216.943C644.911 217.938 645.656 218.712 646.622 219.266C647.588 219.82 648.739 220.097 650.074 220.097C650.997 220.097 651.835 219.969 652.588 219.713C653.341 219.457 653.987 219.081 654.527 218.584C655.067 218.087 655.472 217.476 655.741 216.751L665.308 217.028C664.911 219.173 664.037 221.041 662.687 222.632C661.352 224.209 659.598 225.438 657.425 226.318C655.251 227.185 652.737 227.618 649.882 227.618ZM702.909 204.266L693.342 204.521C693.242 203.839 692.972 203.236 692.532 202.71C692.092 202.17 691.517 201.751 690.806 201.453C690.11 201.141 689.301 200.984 688.377 200.984C687.17 200.984 686.14 201.226 685.288 201.709C684.45 202.192 684.038 202.845 684.052 203.669C684.038 204.308 684.294 204.862 684.819 205.331C685.359 205.8 686.318 206.176 687.696 206.46L694.002 207.653C697.269 208.278 699.698 209.315 701.289 210.764C702.894 212.213 703.704 214.131 703.718 216.517C703.704 218.761 703.036 220.714 701.715 222.376C700.409 224.038 698.619 225.331 696.346 226.254C694.073 227.163 691.474 227.618 688.548 227.618C683.874 227.618 680.188 226.659 677.49 224.741C674.805 222.81 673.271 220.224 672.887 216.986L683.178 216.73C683.406 217.923 683.995 218.832 684.947 219.457C685.899 220.082 687.113 220.395 688.59 220.395C689.926 220.395 691.012 220.146 691.85 219.649C692.688 219.152 693.115 218.491 693.129 217.668C693.115 216.929 692.788 216.339 692.149 215.899C691.509 215.445 690.508 215.089 689.144 214.834L683.434 213.747C680.153 213.151 677.71 212.05 676.105 210.445C674.499 208.825 673.704 206.766 673.718 204.266C673.704 202.078 674.286 200.21 675.465 198.662C676.644 197.099 678.321 195.906 680.494 195.082C682.667 194.259 685.231 193.847 688.186 193.847C692.617 193.847 696.112 194.777 698.669 196.638C701.225 198.484 702.639 201.027 702.909 204.266Z" fill="#18C95F"/>
<path d="M217.757 227L215.757 227L215.757 229L217.757 229L217.757 227ZM217.757 183.364L217.757 181.364L215.757 181.364L215.757 183.364L217.757 183.364ZM228.304 183.364L230.304 183.364L230.304 181.364L228.304 181.364L228.304 183.364ZM228.304 200.878L226.304 200.878L226.304 202.878L228.304 202.878L228.304 200.878ZM245.499 200.878L245.499 202.878L247.499 202.878L247.499 200.878L245.499 200.878ZM245.499 183.364L245.499 181.364L243.499 181.364L243.499 183.364L245.499 183.364ZM256.024 183.364L258.024 183.364L258.024 181.364L256.024 181.364L256.024 183.364ZM256.024 227L256.024 229L258.024 229L258.024 227L256.024 227ZM245.499 227L243.499 227L243.499 229L245.499 229L245.499 227ZM245.499 209.464L247.499 209.464L247.499 207.464L245.499 207.464L245.499 209.464ZM228.304 209.464L228.304 207.464L226.304 207.464L226.304 209.464L228.304 209.464ZM228.304 227L228.304 229L230.304 229L230.304 227L228.304 227ZM217.757 227L219.757 227L219.757 183.364L217.757 183.364L215.757 183.364L215.757 227L217.757 227ZM217.757 183.364L217.757 185.364L228.304 185.364L228.304 183.364L228.304 181.364L217.757 181.364L217.757 183.364ZM228.304 183.364L226.304 183.364L226.304 200.878L228.304 200.878L230.304 200.878L230.304 183.364L228.304 183.364ZM228.304 200.878L228.304 202.878L245.499 202.878L245.499 200.878L245.499 198.878L228.304 198.878L228.304 200.878ZM245.499 200.878L247.499 200.878L247.499 183.364L245.499 183.364L243.499 183.364L243.499 200.878L245.499 200.878ZM245.499 183.364L245.499 185.364L256.024 185.364L256.024 183.364L256.024 181.364L245.499 181.364L245.499 183.364ZM256.024 183.364L254.024 183.364L254.024 227L256.024 227L258.024 227L258.024 183.364L256.024 183.364ZM256.024 227L256.024 225L245.499 225L245.499 227L245.499 229L256.024 229L256.024 227ZM245.499 227L247.499 227L247.499 209.464L245.499 209.464L243.499 209.464L243.499 227L245.499 227ZM245.499 209.464L245.499 207.464L228.304 207.464L228.304 209.464L228.304 211.464L245.499 211.464L245.499 209.464ZM228.304 209.464L226.304 209.464L226.304 227L228.304 227L230.304 227L230.304 209.464L228.304 209.464ZM228.304 227L228.304 225L217.757 225L217.757 227L217.757 229L228.304 229L228.304 227ZM272.653 225.509L271.652 227.24L271.664 227.247L272.653 225.509ZM266.964 219.585L265.19 220.507L265.196 220.519L266.964 219.585ZM266.964 201.901L265.194 200.971L265.192 200.974L266.964 201.901ZM272.653 195.977L273.647 197.713L273.65 197.711L272.653 195.977ZM290.359 195.977L289.358 197.709L289.37 197.716L290.359 195.977ZM296.048 201.901L294.273 202.823L294.28 202.835L296.048 201.901ZM296.048 219.585L294.278 218.655L294.276 218.659L296.048 219.585ZM290.359 225.509L291.353 227.244L291.356 227.243L290.359 225.509ZM284.756 218.605L283.43 217.108L283.43 217.108L284.756 218.605ZM286.737 215.409L284.846 214.759L284.843 214.768L284.84 214.777L286.737 215.409ZM286.737 205.906L284.84 206.539L284.843 206.548L284.846 206.556L286.737 205.906ZM284.756 202.71L286.081 201.213L286.081 201.213L284.756 202.71ZM278.3 202.71L276.998 201.192L276.992 201.197L276.986 201.202L278.3 202.71ZM276.276 205.906L274.384 205.256L274.381 205.265L274.378 205.274L276.276 205.906ZM276.276 215.409L274.378 216.042L274.381 216.05L274.384 216.059L276.276 215.409ZM278.3 218.605L276.986 220.113L276.992 220.118L276.998 220.124L278.3 218.605ZM281.517 227.618L281.517 225.618C278.354 225.618 275.756 224.972 273.642 223.77L272.653 225.509L271.664 227.247C274.494 228.857 277.805 229.618 281.517 229.618L281.517 227.618ZM272.653 225.509L273.654 223.777C271.525 222.546 269.894 220.849 268.733 218.651L266.964 219.585L265.196 220.519C266.706 223.378 268.867 225.63 271.653 227.24L272.653 225.509ZM266.964 219.585L268.739 218.663C267.589 216.45 266.983 213.829 266.983 210.743L264.983 210.743L262.983 210.743C262.983 214.362 263.697 217.635 265.19 220.507L266.964 219.585ZM264.983 210.743L266.983 210.743C266.983 207.641 267.59 205.022 268.737 202.827L266.964 201.901L265.192 200.974C263.697 203.836 262.983 207.112 262.983 210.743L264.983 210.743ZM266.964 201.901L268.735 202.83C269.896 200.62 271.525 198.927 273.647 197.713L272.653 195.977L271.66 194.241C268.867 195.84 266.703 198.096 265.194 200.971L266.964 201.901ZM272.653 195.977L273.65 197.711C275.762 196.498 278.357 195.847 281.517 195.847L281.517 193.847L281.517 191.847C277.802 191.847 274.488 192.616 271.657 194.243L272.653 195.977ZM281.517 193.847L281.517 195.847C284.677 195.847 287.264 196.498 289.358 197.709L290.359 195.977L291.36 194.246C288.54 192.616 285.232 191.847 281.517 191.847L281.517 193.847ZM290.359 195.977L289.37 197.716C291.504 198.93 293.129 200.619 294.274 202.823L296.048 201.901L297.823 200.978C296.326 198.097 294.158 195.837 291.348 194.239L290.359 195.977ZM296.048 201.901L294.28 202.835C295.438 205.028 296.051 207.644 296.051 210.743L298.051 210.743L300.051 210.743C300.051 207.109 299.329 203.83 297.817 200.967L296.048 201.901ZM298.051 210.743L296.051 210.743C296.051 213.826 295.439 216.444 294.278 218.655L296.048 219.585L297.819 220.515C299.328 217.641 300.051 214.365 300.051 210.743L298.051 210.743ZM296.048 219.585L294.276 218.659C293.131 220.85 291.504 222.544 289.363 223.774L290.359 225.509L291.356 227.243C294.158 225.632 296.324 223.377 297.821 220.511L296.048 219.585ZM290.359 225.509L289.366 223.773C287.27 224.972 284.68 225.618 281.517 225.618L281.517 227.618L281.517 229.618C285.229 229.618 288.534 228.857 291.353 227.244L290.359 225.509ZM281.581 219.756L281.581 221.756C283.277 221.756 284.819 221.221 286.081 220.103L284.756 218.605L283.43 217.108C282.96 217.524 282.385 217.756 281.581 217.756L281.581 219.756ZM284.756 218.605L286.081 220.103C287.268 219.052 288.095 217.659 288.635 216.042L286.737 215.409L284.84 214.777C284.47 215.887 283.977 216.624 283.43 217.108L284.756 218.605ZM286.737 215.409L288.629 216.059C289.184 214.443 289.44 212.639 289.44 210.679L287.44 210.679L285.44 210.679C285.44 212.299 285.228 213.648 284.846 214.759L286.737 215.409ZM287.44 210.679L289.44 210.679C289.44 208.695 289.185 206.875 288.629 205.256L286.737 205.906L284.846 206.556C285.227 207.664 285.44 209.027 285.44 210.679L287.44 210.679ZM286.737 205.906L288.635 205.274C288.095 203.657 287.268 202.263 286.081 201.213L284.756 202.71L283.43 204.208C283.977 204.692 284.47 205.429 284.84 206.539L286.737 205.906ZM284.756 202.71L286.081 201.213C284.819 200.095 283.277 199.56 281.581 199.56L281.581 201.56L281.581 203.56C282.385 203.56 282.96 203.792 283.43 204.208L284.756 202.71ZM281.581 201.56L281.581 199.56C279.861 199.56 278.291 200.083 276.998 201.192L278.3 202.71L279.601 204.229C280.098 203.803 280.716 203.56 281.581 203.56L281.581 201.56ZM278.3 202.71L276.986 201.202C275.786 202.248 274.94 203.638 274.384 205.256L276.276 205.906L278.167 206.556C278.548 205.447 279.053 204.707 279.613 204.218L278.3 202.71ZM276.276 205.906L274.378 205.274C273.84 206.887 273.594 208.7 273.594 210.679L275.594 210.679L277.594 210.679C277.594 209.021 277.802 207.653 278.173 206.539L276.276 205.906ZM275.594 210.679L273.594 210.679C273.594 212.633 273.841 214.431 274.378 216.042L276.276 215.409L278.173 214.777C277.801 213.66 277.594 212.304 277.594 210.679L275.594 210.679ZM276.276 215.409L274.384 216.059C274.94 217.677 275.786 219.068 276.986 220.113L278.3 218.605L279.613 217.097C279.053 216.609 278.548 215.868 278.167 214.759L276.276 215.409ZM278.3 218.605L276.998 220.124C278.291 221.232 279.861 221.756 281.581 221.756L281.581 219.756L281.581 217.756C280.716 217.756 280.098 217.512 279.601 217.087L278.3 218.605ZM306.988 227L304.988 227L304.988 229L306.988 229L306.988 227ZM306.988 194.273L306.988 192.273L304.988 192.273L304.988 194.273L306.988 194.273ZM316.896 194.273L318.896 194.273L318.896 192.273L316.896 192.273L316.896 194.273ZM316.896 200.281L314.896 200.281L314.896 202.281L316.896 202.281L316.896 200.281ZM317.258 200.281L317.258 202.281L318.687 202.281L319.15 200.93L317.258 200.281ZM320.71 195.572L321.868 197.203L321.868 197.203L320.71 195.572ZM332.344 195.594L331.176 197.217L331.176 197.217L332.344 195.594ZM335.433 200.281L333.482 200.72L333.833 202.281L335.433 202.281L335.433 200.281ZM335.774 200.281L335.774 202.281L337.242 202.281L337.682 200.88L335.774 200.281ZM339.354 195.615L340.451 197.287L340.46 197.281L339.354 195.615ZM353.182 196.83L351.747 198.223L351.752 198.228L353.182 196.83ZM356.079 227L356.079 229L358.079 229L358.079 227L356.079 227ZM345.66 227L343.66 227L343.66 229L345.66 229L345.66 227ZM344.403 203.626L342.966 205.017L342.971 205.023L342.977 205.029L344.403 203.626ZM337.756 203.733L336.253 202.413L336.252 202.414L337.756 203.733ZM336.541 227L336.541 229L338.541 229L338.541 227L336.541 227ZM326.527 227L324.527 227L324.527 229L326.527 229L326.527 227ZM325.291 203.648L326.752 202.281L326.752 202.281L325.291 203.648ZM319.623 202.987L320.668 204.693L320.68 204.685L320.693 204.677L319.623 202.987ZM317.983 204.82L316.194 203.925L316.188 203.938L316.181 203.951L317.983 204.82ZM317.408 227L317.408 229L319.408 229L319.408 227L317.408 227ZM306.988 227L308.988 227L308.988 194.273L306.988 194.273L304.988 194.273L304.988 227L306.988 227ZM306.988 194.273L306.988 196.273L316.896 196.273L316.896 194.273L316.896 192.273L306.988 192.273L306.988 194.273ZM316.896 194.273L314.896 194.273L314.896 200.281L316.896 200.281L318.896 200.281L318.896 194.273L316.896 194.273ZM316.896 200.281L316.896 202.281L317.258 202.281L317.258 200.281L317.258 198.281L316.896 198.281L316.896 200.281ZM317.258 200.281L319.15 200.93C319.705 199.313 320.611 198.096 321.868 197.203L320.71 195.572L319.552 193.942C317.571 195.35 316.176 197.273 315.366 199.633L317.258 200.281ZM320.71 195.572L321.868 197.203C323.106 196.323 324.62 195.847 326.506 195.847L326.506 193.847L326.506 191.847C323.902 191.847 321.552 192.52 319.552 193.942L320.71 195.572ZM326.506 193.847L326.506 195.847C328.42 195.847 329.943 196.331 331.176 197.217L332.344 195.594L333.511 193.97C331.506 192.527 329.137 191.847 326.506 191.847L326.506 193.847ZM332.344 195.594L331.176 197.217C332.394 198.094 333.148 199.233 333.482 200.72L335.433 200.281L337.384 199.843C336.838 197.409 335.531 195.423 333.511 193.97L332.344 195.594ZM335.433 200.281L335.433 202.281L335.774 202.281L335.774 200.281L335.774 198.281L335.433 198.281L335.433 200.281ZM335.774 200.281L337.682 200.88C338.149 199.394 339.044 198.21 340.451 197.287L339.354 195.615L338.257 193.943C336.112 195.35 334.621 197.276 333.866 199.682L335.774 200.281ZM339.354 195.615L340.46 197.281C341.865 196.348 343.564 195.847 345.639 195.847L345.639 193.847L345.639 191.847C342.885 191.847 340.393 192.524 338.247 193.949L339.354 195.615ZM345.639 193.847L345.639 195.847C348.265 195.847 350.238 196.669 351.747 198.223L353.182 196.83L354.616 195.436C352.262 193.013 349.207 191.847 345.639 191.847L345.639 193.847ZM353.182 196.83L351.752 198.228C353.232 199.741 354.079 201.903 354.079 204.969L356.079 204.969L358.079 204.969C358.079 201.132 356.995 197.867 354.611 195.431L353.182 196.83ZM356.079 204.969L354.079 204.969L354.079 227L356.079 227L358.079 227L358.079 204.969L356.079 204.969ZM356.079 227L356.079 225L345.66 225L345.66 227L345.66 229L356.079 229L356.079 227ZM345.66 227L347.66 227L347.66 207.355L345.66 207.355L343.66 207.355L343.66 227L345.66 227ZM345.66 207.355L347.66 207.355C347.66 205.393 347.153 203.57 345.829 202.224L344.403 203.626L342.977 205.029C343.33 205.387 343.66 206.05 343.66 207.355L345.66 207.355ZM344.403 203.626L345.841 202.236C344.583 200.936 342.956 200.327 341.143 200.327L341.143 202.327L341.143 204.327C342.001 204.327 342.547 204.584 342.966 205.017L344.403 203.626ZM341.143 202.327L341.143 200.327C339.229 200.327 337.515 200.976 336.253 202.413L337.756 203.733L339.258 205.053C339.643 204.615 340.189 204.327 341.143 204.327L341.143 202.327ZM337.756 203.733L336.252 202.414C335.043 203.793 334.541 205.55 334.541 207.462L336.541 207.462L338.541 207.462C338.541 206.248 338.849 205.519 339.259 205.052L337.756 203.733ZM336.541 207.462L334.541 207.462L334.541 227L336.541 227L338.541 227L338.541 207.462L336.541 207.462ZM336.541 227L336.541 225L326.527 225L326.527 227L326.527 229L336.541 229L336.541 227ZM326.527 227L328.527 227L328.527 207.249L326.527 207.249L324.527 207.249L324.527 227L326.527 227ZM326.527 207.249L328.527 207.249C328.527 205.359 328.006 203.622 326.752 202.281L325.291 203.648L323.83 205.014C324.224 205.435 324.527 206.098 324.527 207.249L326.527 207.249ZM325.291 203.648L326.752 202.281C325.503 200.946 323.861 200.327 322.031 200.327L322.031 202.327L322.031 204.327C322.9 204.327 323.432 204.588 323.831 205.014L325.291 203.648ZM322.031 202.327L322.031 200.327C320.784 200.327 319.603 200.634 318.554 201.297L319.623 202.987L320.693 204.677C321.036 204.46 321.46 204.327 322.031 204.327L322.031 202.327ZM319.623 202.987L318.579 201.282C317.535 201.921 316.743 202.826 316.194 203.925L317.983 204.82L319.772 205.714C320.018 205.222 320.319 204.906 320.668 204.693L319.623 202.987ZM317.983 204.82L316.181 203.951C315.641 205.071 315.408 206.317 315.408 207.632L317.408 207.632L319.408 207.632C319.408 206.788 319.557 206.159 319.784 205.688L317.983 204.82ZM317.408 207.632L315.408 207.632L315.408 227L317.408 227L319.408 227L319.408 207.632L317.408 207.632ZM317.408 227L317.408 225L306.988 225L306.988 227L306.988 229L317.408 229L317.408 227ZM372.57 225.594L371.604 227.345L371.616 227.351L372.57 225.594ZM366.86 219.777L365.087 220.703L365.093 220.715L366.86 219.777ZM366.881 201.901L368.65 202.835L368.652 202.83L366.881 201.901ZM372.527 195.977L373.529 197.708L373.537 197.704L372.527 195.977ZM387.506 194.933L388.208 193.061L388.208 193.061L387.506 194.933ZM395.794 203.413L393.921 204.114L393.923 204.118L395.794 203.413ZM396.966 213.151L396.966 215.151L398.966 215.151L398.966 213.151L396.966 213.151ZM368.522 213.151L366.522 213.151L366.522 215.151L368.522 215.151L368.522 213.151ZM368.522 207.099L368.522 205.099L366.522 205.099L366.522 207.099L368.522 207.099ZM387.272 207.099L387.272 209.099L389.298 209.099L389.272 207.074L387.272 207.099ZM384.374 202.114L383.391 203.855L383.407 203.865L383.424 203.874L384.374 202.114ZM378.195 202.156L379.164 203.906L379.174 203.9L379.184 203.894L378.195 202.156ZM376 204.266L377.706 205.311L377.709 205.305L377.713 205.299L376 204.266ZM375.148 207.27L373.149 207.219L373.148 207.245L373.148 207.27L375.148 207.27ZM375.937 216.943L374.163 217.867L374.168 217.878L375.937 216.943ZM378.174 219.266L377.179 221.001L377.179 221.001L378.174 219.266ZM384.14 219.713L384.783 221.607L384.783 221.607L384.14 219.713ZM386.079 218.584L387.433 220.055L387.434 220.055L386.079 218.584ZM387.293 216.751L387.351 214.752L385.919 214.711L385.419 216.053L387.293 216.751ZM396.86 217.028L398.826 217.393L399.252 215.097L396.918 215.029L396.86 217.028ZM394.239 222.632L392.714 221.338L392.713 221.34L394.239 222.632ZM388.976 226.318L389.717 228.176L389.727 228.172L388.976 226.318ZM381.434 227.618L381.434 225.618C378.274 225.618 375.661 224.996 373.524 223.836L372.57 225.594L371.616 227.351C374.45 228.89 377.747 229.618 381.434 229.618L381.434 227.618ZM372.57 225.594L373.536 223.843C371.408 222.668 369.781 221.013 368.626 218.839L366.86 219.777L365.093 220.715C366.609 223.569 368.789 225.792 371.604 227.345L372.57 225.594ZM366.86 219.777L368.632 218.851C367.49 216.665 366.878 213.992 366.878 210.764L364.878 210.764L362.878 210.764C362.878 214.497 363.587 217.833 365.087 220.703L366.86 219.777ZM364.878 210.764L366.878 210.764C366.878 207.65 367.492 205.027 368.65 202.835L366.881 201.901L365.113 200.967C363.6 203.831 362.878 207.117 362.878 210.764L364.878 210.764ZM366.881 201.901L368.652 202.83C369.816 200.614 371.435 198.921 373.529 197.708L372.527 195.977L371.525 194.246C368.762 195.846 366.617 198.102 365.11 200.971L366.881 201.901ZM372.527 195.977L373.537 197.704C375.611 196.491 378.112 195.847 381.114 195.847L381.114 193.847L381.114 191.847C377.525 191.847 374.302 192.623 371.518 194.251L372.527 195.977ZM381.114 193.847L381.114 195.847C383.234 195.847 385.124 196.176 386.804 196.806L387.506 194.933L388.208 193.061C386.025 192.242 383.653 191.847 381.114 191.847L381.114 193.847ZM387.506 194.933L386.804 196.806C388.474 197.432 389.896 198.349 391.092 199.558L392.513 198.151L393.935 196.743C392.318 195.111 390.402 193.883 388.208 193.061L387.506 194.933ZM392.513 198.151L391.092 199.558C392.278 200.755 393.228 202.26 393.921 204.114L395.794 203.413L397.668 202.713C396.799 200.39 395.561 198.387 393.935 196.743L392.513 198.151ZM395.794 203.413L393.923 204.118C394.603 205.925 394.966 208.058 394.966 210.551L396.966 210.551L398.966 210.551C398.966 207.675 398.548 205.05 397.666 202.708L395.794 203.413ZM396.966 210.551L394.966 210.551L394.966 213.151L396.966 213.151L398.966 213.151L398.966 210.551L396.966 210.551ZM396.966 213.151L396.966 211.151L368.522 211.151L368.522 213.151L368.522 215.151L396.966 215.151L396.966 213.151ZM368.522 213.151L370.522 213.151L370.522 207.099L368.522 207.099L366.522 207.099L366.522 213.151L368.522 213.151ZM368.522 207.099L368.522 209.099L387.272 209.099L387.272 207.099L387.272 205.099L368.522 205.099L368.522 207.099ZM387.272 207.099L389.272 207.074C389.253 205.653 388.912 204.318 388.206 203.121L386.483 204.138L384.761 205.154C385.077 205.691 385.262 206.33 385.272 207.125L387.272 207.099ZM386.483 204.138L388.206 203.121C387.507 201.938 386.536 201.008 385.324 200.354L384.374 202.114L383.424 203.874C384.002 204.186 384.437 204.605 384.761 205.154L386.483 204.138ZM384.374 202.114L385.357 200.372C384.137 199.683 382.774 199.368 381.327 199.368L381.327 201.368L381.327 203.368C382.181 203.368 382.849 203.55 383.391 203.855L384.374 202.114ZM381.327 201.368L381.327 199.368C379.85 199.368 378.459 199.705 377.206 200.418L378.195 202.156L379.184 203.894C379.778 203.557 380.475 203.368 381.327 203.368L381.327 201.368ZM378.195 202.156L377.226 200.407C376 201.086 375.01 202.035 374.288 203.233L376 204.266L377.713 205.299C378.07 204.707 378.544 204.249 379.164 203.906L378.195 202.156ZM376 204.266L374.295 203.221C373.556 204.427 373.185 205.777 373.149 207.219L375.148 207.27L377.148 207.321C377.168 206.519 377.365 205.866 377.706 205.311L376 204.266ZM375.148 207.27L373.148 207.27L373.148 213.428L375.148 213.428L377.148 213.428L377.148 207.27L375.148 207.27ZM375.148 213.428L373.148 213.428C373.148 215.029 373.465 216.528 374.163 217.867L375.937 216.943L377.71 216.019C377.357 215.342 377.148 214.497 377.148 213.428L375.148 213.428ZM375.937 216.943L374.168 217.878C374.869 219.203 375.881 220.256 377.179 221.001L378.174 219.266L379.169 217.531C378.535 217.167 378.055 216.672 377.705 216.009L375.937 216.943ZM378.174 219.266L377.179 221.001C378.503 221.76 380.011 222.097 381.625 222.097L381.625 220.097L381.625 218.097C380.57 218.097 379.777 217.879 379.169 217.531L378.174 219.266ZM381.625 220.097L381.625 222.097C382.733 222.097 383.792 221.943 384.783 221.607L384.14 219.713L383.496 217.819C382.981 217.994 382.365 218.097 381.625 218.097L381.625 220.097ZM384.14 219.713L384.783 221.607C385.777 221.269 386.672 220.756 387.433 220.055L386.079 218.584L384.724 217.113C384.406 217.406 384.007 217.646 383.496 217.819L384.14 219.713ZM386.079 218.584L387.434 220.055C388.217 219.333 388.793 218.453 389.167 217.45L387.293 216.751L385.419 216.053C385.253 216.499 385.02 216.84 384.724 217.113L386.079 218.584ZM387.293 216.751L387.235 218.751L396.802 219.028L396.86 217.028L396.918 215.029L387.351 214.752L387.293 216.751ZM396.86 217.028L394.893 216.664C394.556 218.482 393.827 220.026 392.714 221.338L394.239 222.632L395.764 223.926C397.35 222.057 398.368 219.864 398.826 217.393L396.86 217.028ZM394.239 222.632L392.713 221.34C391.614 222.638 390.139 223.689 388.225 224.465L388.976 226.318L389.727 228.172C392.16 227.186 394.194 225.78 395.765 223.925L394.239 222.632ZM388.976 226.318L388.236 224.46C386.344 225.215 384.089 225.618 381.434 225.618L381.434 227.618L381.434 229.618C384.488 229.618 387.262 229.155 389.717 228.176L388.976 226.318ZM445.965 196.446L443.973 196.627L444.139 198.446L445.965 198.446L445.965 196.446ZM444.069 192.803L442.824 194.368L442.835 194.377L442.846 194.386L444.069 192.803ZM435.908 192.014L435.18 190.151L435.18 190.151L435.908 192.014ZM433.863 193.484L435.467 194.678L435.474 194.67L435.48 194.661L433.863 193.484ZM433.16 195.594L435.158 195.681L435.159 195.655L435.159 195.629L433.16 195.594ZM433.543 197.32L431.807 198.312L431.817 198.33L431.828 198.349L433.543 197.32ZM434.822 198.641L433.683 200.285L433.707 200.302L433.732 200.318L434.822 198.641ZM436.867 199.621L437.54 197.737L437.54 197.737L436.867 199.621ZM439.552 200.366L439.995 198.416L439.983 198.413L439.971 198.411L439.552 200.366ZM443.302 201.219L442.858 203.169L442.868 203.171L442.877 203.173L443.302 201.219ZM449.012 203.094L448.155 204.901L448.161 204.904L449.012 203.094ZM453.188 205.885L451.801 207.326L451.81 207.335L453.188 205.885ZM455.766 209.614L453.918 210.379L453.918 210.379L455.766 209.614ZM456.661 214.344L458.661 214.354L458.661 214.341L458.661 214.327L456.661 214.344ZM454.573 221.439L452.933 220.294L452.933 220.294L454.573 221.439ZM448.628 225.977L447.875 224.125L447.871 224.126L448.628 225.977ZM429.772 225.913L430.52 224.058L429.772 225.913ZM421.121 212.469L421.121 210.469L419.096 210.469L419.121 212.494L421.121 212.469ZM431.221 212.469L433.217 212.348L433.103 210.469L431.221 210.469L431.221 212.469ZM432.35 215.984L430.721 217.145L430.721 217.145L432.35 215.984ZM435.099 218.115L434.332 219.963L434.34 219.966L435.099 218.115ZM442.812 218.264L442.101 216.395L442.092 216.398L442.812 218.264ZM445.134 216.666L443.566 215.425L443.566 215.425L445.134 216.666ZM445.965 214.322L447.965 214.355L447.965 214.321L447.965 214.288L445.965 214.322ZM445.198 212.213L443.661 213.493L443.669 213.503L443.677 213.512L445.198 212.213ZM442.897 210.679L442.106 212.516L442.121 212.523L442.137 212.529L442.897 210.679ZM438.976 209.464L438.521 211.412L438.524 211.413L438.976 209.464ZM434.417 208.399L434.872 206.452L434.864 206.45L434.417 208.399ZM425.489 204.202L424.155 205.692L424.16 205.697L425.489 204.202ZM422.25 196.318L424.25 196.327L424.251 196.317L424.25 196.308L422.25 196.318ZM424.424 189.223L422.801 188.054L422.801 188.054L424.424 189.223ZM430.496 184.472L431.301 186.303L431.301 186.303L430.496 184.472ZM448.138 184.493L447.298 186.308L447.311 186.314L448.138 184.493ZM453.955 189.287L455.617 188.175L455.617 188.175L453.955 189.287ZM456.064 196.446L456.064 198.446L458.085 198.446L458.064 196.425L456.064 196.446ZM445.965 196.446L447.957 196.265C447.77 194.214 446.903 192.464 445.291 191.22L444.069 192.803L442.846 194.386C443.479 194.874 443.876 195.553 443.973 196.627L445.965 196.446ZM444.069 192.803L445.313 191.237C443.722 189.972 441.63 189.482 439.317 189.482L439.317 191.482L439.317 193.482C441.124 193.482 442.2 193.872 442.824 194.368L444.069 192.803ZM439.317 191.482L439.317 189.482C437.796 189.482 436.394 189.677 435.18 190.151L435.908 192.014L436.636 193.877C437.241 193.641 438.111 193.482 439.317 193.482L439.317 191.482ZM435.908 192.014L435.18 190.151C434.008 190.609 432.977 191.302 432.245 192.308L433.863 193.484L435.48 194.661C435.658 194.417 435.99 194.129 436.636 193.877L435.908 192.014ZM433.863 193.484L432.258 192.29C431.542 193.252 431.181 194.365 431.16 195.558L433.16 195.594L435.159 195.629C435.166 195.232 435.274 194.938 435.467 194.678L433.863 193.484ZM433.16 195.594L431.161 195.507C431.119 196.483 431.31 197.442 431.807 198.312L433.543 197.32L435.28 196.327C435.208 196.203 435.143 196.012 435.158 195.681L433.16 195.594ZM433.543 197.32L431.828 198.349C432.295 199.126 432.933 199.766 433.683 200.285L434.822 198.641L435.96 196.996C435.602 196.748 435.388 196.508 435.258 196.291L433.543 197.32ZM434.822 198.641L433.732 200.318C434.458 200.789 435.286 201.18 436.194 201.504L436.867 199.621L437.54 197.737C436.857 197.493 436.322 197.23 435.911 196.964L434.822 198.641ZM436.867 199.621L436.194 201.504C437.087 201.823 438.069 202.094 439.133 202.322L439.552 200.366L439.971 198.411C439.046 198.213 438.238 197.987 437.54 197.737L436.867 199.621ZM439.552 200.366L439.108 202.317L442.858 203.169L443.302 201.219L443.745 199.268L439.995 198.416L439.552 200.366ZM443.302 201.219L442.877 203.173C444.917 203.616 446.671 204.197 448.155 204.901L449.012 203.094L449.869 201.287C448.057 200.428 446.004 199.759 443.726 199.264L443.302 201.219ZM449.012 203.094L448.161 204.904C449.66 205.608 450.862 206.422 451.801 207.326L453.188 205.885L454.575 204.444C453.27 203.188 451.688 202.142 449.863 201.284L449.012 203.094ZM453.188 205.885L451.81 207.335C452.75 208.228 453.446 209.239 453.918 210.379L455.766 209.614L457.614 208.848C456.921 207.176 455.899 205.701 454.565 204.435L453.188 205.885ZM455.766 209.614L453.918 210.379C454.389 211.515 454.649 212.832 454.661 214.36L456.661 214.344L458.661 214.327C458.645 212.361 458.308 210.525 457.614 208.848L455.766 209.614ZM456.661 214.344L454.661 214.333C454.649 216.744 454.046 218.699 452.933 220.294L454.573 221.439L456.213 222.583C457.856 220.23 458.645 217.455 458.661 214.354L456.661 214.344ZM454.573 221.439L452.933 220.294C451.809 221.904 450.161 223.195 447.875 224.125L448.628 225.977L449.382 227.83C452.266 226.657 454.581 224.923 456.213 222.583L454.573 221.439ZM448.628 225.977L447.871 224.126C445.602 225.054 442.77 225.554 439.317 225.554L439.317 227.554L439.317 229.554C443.137 229.554 446.512 229.003 449.385 227.829L448.628 225.977ZM439.317 227.554L439.317 225.554C435.862 225.554 432.944 225.036 430.52 224.058L429.772 225.913L429.024 227.768C432.026 228.978 435.472 229.554 439.317 229.554L439.317 227.554ZM429.772 225.913L430.52 224.058C428.143 223.1 426.364 221.679 425.101 219.808L423.444 220.928L421.786 222.047C423.534 224.636 425.975 226.539 429.024 227.768L429.772 225.913ZM423.444 220.928L425.101 219.808C423.866 217.978 423.16 215.566 423.121 212.444L421.121 212.469L419.121 212.494C419.168 216.189 420.01 219.417 421.786 222.047L423.444 220.928ZM421.121 212.469L421.121 214.469L431.221 214.469L431.221 212.469L431.221 210.469L421.121 210.469L421.121 212.469ZM431.221 212.469L429.224 212.59C429.327 214.286 429.792 215.84 430.721 217.145L432.35 215.984L433.979 214.824C433.573 214.254 433.285 213.464 433.217 212.348L431.221 212.469ZM432.35 215.984L430.721 217.145C431.627 218.416 432.856 219.35 434.332 219.963L435.099 218.115L435.865 216.268C435.012 215.914 434.409 215.427 433.979 214.824L432.35 215.984ZM435.099 218.115L434.34 219.966C435.806 220.566 437.436 220.839 439.189 220.839L439.189 218.839L439.189 216.839C437.847 216.839 436.749 216.63 435.857 216.264L435.099 218.115ZM439.189 218.839L439.189 220.839C440.779 220.839 442.245 220.626 443.531 220.13L442.812 218.264L442.092 216.398C441.39 216.669 440.441 216.839 439.189 216.839L439.189 218.839ZM442.812 218.264L443.522 220.134C444.787 219.653 445.89 218.933 446.702 217.908L445.134 216.666L443.566 215.425C443.298 215.763 442.853 216.109 442.101 216.395L442.812 218.264ZM445.134 216.666L446.702 217.908C447.519 216.876 447.944 215.669 447.965 214.355L445.965 214.322L443.965 214.29C443.958 214.737 443.829 215.092 443.566 215.425L445.134 216.666ZM445.965 214.322L447.965 214.288C447.943 213.038 447.541 211.878 446.719 210.915L445.198 212.213L443.677 213.512C443.849 213.713 443.958 213.959 443.965 214.357L445.965 214.322ZM445.198 212.213L446.734 210.933C445.957 210 444.871 209.328 443.657 208.829L442.897 210.679L442.137 212.529C442.997 212.882 443.445 213.233 443.661 213.493L445.198 212.213ZM442.897 210.679L443.688 208.842C442.518 208.338 441.087 207.901 439.429 207.516L438.976 209.464L438.524 211.413C440.047 211.766 441.23 212.139 442.106 212.516L442.897 210.679ZM438.976 209.464L439.431 207.517L434.872 206.452L434.417 208.399L433.962 210.347L438.521 211.412L438.976 209.464ZM434.417 208.399L434.864 206.45C431.308 205.634 428.67 204.354 426.818 202.707L425.489 204.202L424.16 205.697C426.655 207.914 429.969 209.431 433.97 210.349L434.417 208.399ZM425.489 204.202L426.823 202.712C425.136 201.201 424.238 199.15 424.25 196.327L422.25 196.318L420.251 196.31C420.234 200.106 421.496 203.311 424.155 205.692L425.489 204.202ZM422.25 196.318L424.25 196.308C424.238 193.997 424.851 192.052 426.047 190.392L424.424 189.223L422.801 188.054C421.071 190.456 420.234 193.242 420.251 196.329L422.25 196.318ZM424.424 189.223L426.047 190.392C427.275 188.686 429 187.314 431.301 186.303L430.496 184.472L429.691 182.641C426.822 183.902 424.498 185.697 422.801 188.054L424.424 189.223ZM430.496 184.472L431.301 186.303C433.593 185.295 436.259 184.767 439.339 184.767L439.339 182.767L439.339 180.767C435.799 180.767 432.57 181.375 429.691 182.641L430.496 184.472ZM439.339 182.767L439.339 184.767C442.495 184.767 445.13 185.304 447.298 186.308L448.138 184.493L448.978 182.678C446.175 181.38 442.943 180.767 439.339 180.767L439.339 182.767ZM448.138 184.493L447.311 186.314C449.51 187.313 451.144 188.681 452.293 190.399L453.955 189.287L455.617 188.175C454.011 185.773 451.767 183.945 448.966 182.672L448.138 184.493ZM453.955 189.287L452.293 190.399C453.434 192.105 454.04 194.104 454.065 196.467L456.064 196.446L458.064 196.425C458.032 193.362 457.232 190.588 455.617 188.175L453.955 189.287ZM456.064 196.446L456.064 194.446L445.965 194.446L445.965 196.446L445.965 198.446L456.064 198.446L456.064 196.446ZM472.022 225.594L471.056 227.345L471.068 227.351L472.022 225.594ZM466.312 219.777L464.539 220.703L464.546 220.715L466.312 219.777ZM466.333 201.901L468.102 202.835L468.104 202.83L466.333 201.901ZM471.98 195.977L472.982 197.708L472.989 197.704L471.98 195.977ZM486.958 194.933L487.661 193.061L487.661 193.061L486.958 194.933ZM495.247 203.413L493.374 204.114L493.375 204.118L495.247 203.413ZM496.419 213.151L496.419 215.151L498.419 215.151L498.419 213.151L496.419 213.151ZM467.974 213.151L465.974 213.151L465.974 215.151L467.974 215.151L467.974 213.151ZM467.974 207.099L467.974 205.099L465.974 205.099L465.974 207.099L467.974 207.099ZM486.724 207.099L486.724 209.099L488.75 209.099L488.724 207.074L486.724 207.099ZM483.826 202.114L482.843 203.855L482.86 203.865L482.876 203.874L483.826 202.114ZM477.647 202.156L478.616 203.906L478.627 203.9L478.637 203.894L477.647 202.156ZM475.453 204.266L477.158 205.311L477.162 205.305L477.165 205.299L475.453 204.266ZM474.6 207.27L472.601 207.219L472.6 207.245L472.6 207.27L474.6 207.27ZM475.389 216.943L473.615 217.867L473.621 217.878L475.389 216.943ZM477.626 219.266L476.631 221.001L476.631 221.001L477.626 219.266ZM483.592 219.713L484.235 221.607L484.235 221.607L483.592 219.713ZM485.531 218.584L486.886 220.055L486.886 220.055L485.531 218.584ZM486.745 216.751L486.803 214.752L485.371 214.711L484.871 216.053L486.745 216.751ZM496.312 217.028L498.279 217.393L498.704 215.097L496.37 215.029L496.312 217.028ZM493.691 222.632L492.166 221.338L492.165 221.34L493.691 222.632ZM488.429 226.318L489.169 228.176L489.18 228.172L488.429 226.318ZM480.886 227.618L480.886 225.618C477.726 225.618 475.114 224.996 472.977 223.836L472.022 225.594L471.068 227.351C473.903 228.89 477.199 229.618 480.886 229.618L480.886 227.618ZM472.022 225.594L472.989 223.843C470.86 222.668 469.233 221.013 468.079 218.839L466.312 219.777L464.546 220.715C466.062 223.569 468.242 225.792 471.056 227.345L472.022 225.594ZM466.312 219.777L468.085 218.851C466.943 216.665 466.331 213.992 466.331 210.764L464.331 210.764L462.331 210.764C462.331 214.497 463.04 217.833 464.54 220.703L466.312 219.777ZM464.331 210.764L466.331 210.764C466.331 207.65 466.944 205.027 468.102 202.835L466.333 201.901L464.565 200.967C463.052 203.831 462.331 207.117 462.331 210.764L464.331 210.764ZM466.333 201.901L468.104 202.83C469.268 200.614 470.887 198.921 472.982 197.708L471.98 195.977L470.978 194.246C468.214 195.846 466.069 198.102 464.563 200.971L466.333 201.901ZM471.98 195.977L472.989 197.704C475.063 196.491 477.564 195.847 480.566 195.847L480.566 193.847L480.566 191.847C476.977 191.847 473.754 192.623 470.97 194.251L471.98 195.977ZM480.566 193.847L480.566 195.847C482.687 195.847 484.576 196.176 486.256 196.806L486.958 194.933L487.661 193.061C485.477 192.242 483.105 191.847 480.566 191.847L480.566 193.847ZM486.958 194.933L486.256 196.806C487.926 197.432 489.348 198.349 490.544 199.558L491.966 198.151L493.387 196.743C491.771 195.111 489.854 193.883 487.661 193.061L486.958 194.933ZM491.966 198.151L490.544 199.558C491.73 200.755 492.68 202.26 493.374 204.114L495.247 203.413L497.12 202.713C496.251 200.39 495.014 198.387 493.387 196.743L491.966 198.151ZM495.247 203.413L493.375 204.118C494.056 205.925 494.419 208.058 494.419 210.551L496.419 210.551L498.419 210.551C498.419 207.675 498 205.05 497.118 202.708L495.247 203.413ZM496.419 210.551L494.419 210.551L494.419 213.151L496.419 213.151L498.419 213.151L498.419 210.551L496.419 210.551ZM496.419 213.151L496.419 211.151L467.974 211.151L467.974 213.151L467.974 215.151L496.419 215.151L496.419 213.151ZM467.974 213.151L469.974 213.151L469.974 207.099L467.974 207.099L465.974 207.099L465.974 213.151L467.974 213.151ZM467.974 207.099L467.974 209.099L486.724 209.099L486.724 207.099L486.724 205.099L467.974 205.099L467.974 207.099ZM486.724 207.099L488.724 207.074C488.706 205.653 488.364 204.318 487.658 203.121L485.936 204.138L484.213 205.154C484.53 205.691 484.714 206.33 484.724 207.125L486.724 207.099ZM485.936 204.138L487.658 203.121C486.96 201.938 485.988 201.008 484.776 200.354L483.826 202.114L482.876 203.874C483.455 204.186 483.889 204.605 484.213 205.154L485.936 204.138ZM483.826 202.114L484.81 200.372C483.59 199.683 482.226 199.368 480.779 199.368L480.779 201.368L480.779 203.368C481.634 203.368 482.302 203.55 482.843 203.855L483.826 202.114ZM480.779 201.368L480.779 199.368C479.302 199.368 477.911 199.705 476.658 200.418L477.647 202.156L478.637 203.894C479.23 203.557 479.927 203.368 480.779 203.368L480.779 201.368ZM477.647 202.156L476.678 200.407C475.452 201.086 474.463 202.035 473.74 203.233L475.453 204.266L477.165 205.299C477.522 204.707 477.996 204.249 478.616 203.906L477.647 202.156ZM475.453 204.266L473.748 203.221C473.008 204.427 472.638 205.777 472.601 207.219L474.6 207.27L476.6 207.321C476.62 206.519 476.818 205.866 477.158 205.311L475.453 204.266ZM474.6 207.27L472.6 207.27L472.6 213.428L474.6 213.428L476.6 213.428L476.6 207.27L474.6 207.27ZM474.6 213.428L472.6 213.428C472.6 215.029 472.917 216.528 473.615 217.867L475.389 216.943L477.162 216.019C476.81 215.342 476.6 214.497 476.6 213.428L474.6 213.428ZM475.389 216.943L473.621 217.878C474.321 219.203 475.333 220.256 476.631 221.001L477.626 219.266L478.621 217.531C477.987 217.167 477.508 216.672 477.157 216.009L475.389 216.943ZM477.626 219.266L476.631 221.001C477.955 221.76 479.463 222.097 481.078 222.097L481.078 220.097L481.078 218.097C480.022 218.097 479.229 217.879 478.621 217.531L477.626 219.266ZM481.078 220.097L481.078 222.097C482.185 222.097 483.245 221.943 484.235 221.607L483.592 219.713L482.949 217.819C482.433 217.994 481.817 218.097 481.078 218.097L481.078 220.097ZM483.592 219.713L484.235 221.607C485.23 221.269 486.124 220.756 486.886 220.055L485.531 218.584L484.176 217.113C483.858 217.406 483.46 217.646 482.949 217.819L483.592 219.713ZM485.531 218.584L486.886 220.055C487.669 219.333 488.246 218.453 488.62 217.45L486.745 216.751L484.871 216.053C484.705 216.499 484.472 216.84 484.176 217.113L485.531 218.584ZM486.745 216.751L486.688 218.751L496.254 219.028L496.312 217.028L496.37 215.029L486.803 214.752L486.745 216.751ZM496.312 217.028L494.346 216.664C494.008 218.482 493.28 220.026 492.166 221.338L493.691 222.632L495.217 223.926C496.802 222.057 497.82 219.864 498.279 217.393L496.312 217.028ZM493.691 222.632L492.165 221.34C491.066 222.638 489.592 223.689 487.677 224.465L488.429 226.318L489.18 228.172C491.612 227.186 493.646 225.78 495.218 223.925L493.691 222.632ZM488.429 226.318L487.688 224.46C485.796 225.215 483.542 225.618 480.886 225.618L480.886 227.618L480.886 229.618C483.941 229.618 486.715 229.155 489.169 228.176L488.429 226.318ZM505.34 227L503.34 227L503.34 229L505.34 229L505.34 227ZM505.34 194.273L505.34 192.273L503.34 192.273L503.34 194.273L505.34 194.273ZM515.461 194.273L517.461 194.273L517.461 192.273L515.461 192.273L515.461 194.273ZM515.461 200.239L513.461 200.239L513.461 202.239L515.461 202.239L515.461 200.239ZM515.802 200.239L515.802 202.239L517.324 202.239L517.729 200.771L515.802 200.239ZM518.721 195.423L519.95 197.001L519.96 196.993L518.721 195.423ZM524.921 193.932L524.646 195.913L524.673 195.917L524.7 195.92L524.921 193.932ZM526.349 194.209L528.349 194.209L528.349 192.707L526.906 192.288L526.349 194.209ZM526.349 203.264L525.7 205.156L528.349 206.064L528.349 203.264L526.349 203.264ZM524.388 202.859L524.14 204.844L524.145 204.844L524.388 202.859ZM518.913 203.541L519.877 205.293L519.886 205.288L518.913 203.541ZM516.59 205.821L514.86 204.818L514.855 204.826L516.59 205.821ZM515.759 227L515.759 229L517.759 229L517.759 227L515.759 227ZM505.34 227L507.34 227L507.34 194.273L505.34 194.273L503.34 194.273L503.34 227L505.34 227ZM505.34 194.273L505.34 196.273L515.461 196.273L515.461 194.273L515.461 192.273L505.34 192.273L505.34 194.273ZM515.461 194.273L513.461 194.273L513.461 200.239L515.461 200.239L517.461 200.239L517.461 194.273L515.461 194.273ZM515.461 200.239L515.461 202.239L515.802 202.239L515.802 200.239L515.802 198.239L515.461 198.239L515.461 200.239ZM515.802 200.239L517.729 200.771C518.247 198.899 519.031 197.717 519.95 197.001L518.721 195.423L517.492 193.845C515.711 195.232 514.55 197.261 513.874 199.706L515.802 200.239ZM518.721 195.423L519.96 196.993C520.941 196.218 522.07 195.825 523.43 195.825L523.43 193.825L523.43 191.825C521.21 191.825 519.199 192.497 517.481 193.854L518.721 195.423ZM523.43 193.825L523.43 195.825C523.814 195.825 524.219 195.854 524.646 195.913L524.921 193.932L525.196 191.951C524.6 191.868 524.011 191.825 523.43 191.825L523.43 193.825ZM524.921 193.932L524.7 195.92C525.111 195.965 525.473 196.037 525.791 196.129L526.349 194.209L526.906 192.288C526.343 192.125 525.754 192.012 525.142 191.944L524.921 193.932ZM526.349 194.209L524.349 194.209L524.349 203.264L526.349 203.264L528.349 203.264L528.349 194.209L526.349 194.209ZM526.349 203.264L526.997 201.372C526.318 201.139 525.513 200.982 524.632 200.874L524.388 202.859L524.145 204.844C524.883 204.935 525.385 205.048 525.7 205.156L526.349 203.264ZM524.388 202.859L524.636 200.875C523.78 200.768 522.985 200.71 522.258 200.71L522.258 202.71L522.258 204.71C522.78 204.71 523.405 204.752 524.14 204.844L524.388 202.859ZM522.258 202.71L522.258 200.71C520.711 200.71 519.256 201.06 517.939 201.794L518.913 203.541L519.886 205.288C520.557 204.914 521.333 204.71 522.258 204.71L522.258 202.71ZM518.913 203.541L517.948 201.789C516.645 202.507 515.608 203.527 514.86 204.818L516.59 205.821L518.32 206.824C518.709 206.154 519.22 205.655 519.877 205.293L518.913 203.541ZM516.59 205.821L514.855 204.826C514.099 206.144 513.759 207.635 513.759 209.23L515.759 209.23L517.759 209.23C517.759 208.211 517.973 207.43 518.325 206.816L516.59 205.821ZM515.759 209.23L513.759 209.23L513.759 227L515.759 227L517.759 227L517.759 209.23L515.759 209.23ZM515.759 227L515.759 225L505.34 225L505.34 227L505.34 229L515.759 229L515.759 227ZM566.937 194.273L568.829 194.922L569.738 192.273L566.937 192.273L566.937 194.273ZM555.709 227L555.709 229L557.137 229L557.6 227.649L555.709 227ZM543.777 227L541.885 227.648L542.348 229L543.777 229L543.777 227ZM532.569 194.273L532.569 192.273L529.77 192.273L530.677 194.921L532.569 194.273ZM543.542 194.273L545.474 193.756L545.078 192.273L543.542 192.273L543.542 194.273ZM549.572 216.815L547.64 217.332L548.037 218.815L549.572 218.815L549.572 216.815ZM549.913 216.815L549.913 218.815L551.447 218.815L551.845 217.334L549.913 216.815ZM555.964 194.273L555.964 192.273L554.43 192.273L554.033 193.754L555.964 194.273ZM566.937 194.273L565.045 193.624L553.817 226.351L555.709 227L557.6 227.649L568.829 194.922L566.937 194.273ZM555.709 227L555.709 225L543.777 225L543.777 227L543.777 229L555.709 229L555.709 227ZM543.777 227L545.669 226.352L534.461 193.625L532.569 194.273L530.677 194.921L541.885 227.648L543.777 227ZM532.569 194.273L532.569 196.273L543.542 196.273L543.542 194.273L543.542 192.273L532.569 192.273L532.569 194.273ZM543.542 194.273L541.61 194.79L547.64 217.332L549.572 216.815L551.504 216.299L545.474 193.756L543.542 194.273ZM549.572 216.815L549.572 218.815L549.913 218.815L549.913 216.815L549.913 214.815L549.572 214.815L549.572 216.815ZM549.913 216.815L551.845 217.334L557.896 194.791L555.964 194.273L554.033 193.754L547.981 216.297L549.913 216.815ZM555.964 194.273L555.964 196.273L566.937 196.273L566.937 194.273L566.937 192.273L555.964 192.273L555.964 194.273ZM574.532 227L572.532 227L572.532 229L574.532 229L574.532 227ZM574.532 194.273L574.532 192.273L572.532 192.273L572.532 194.273L574.532 194.273ZM584.951 194.273L586.951 194.273L586.951 192.273L584.951 192.273L584.951 194.273ZM584.951 227L584.951 229L586.951 229L586.951 227L584.951 227ZM575.981 189.01L574.617 190.473L574.622 190.478L574.628 190.483L575.981 189.01ZM575.981 181.979L577.334 183.451L577.34 183.446L577.345 183.441L575.981 181.979ZM583.524 181.979L582.15 183.432L582.16 183.442L582.17 183.451L583.524 181.979ZM583.524 189.01L584.887 190.473L584.888 190.473L583.524 189.01ZM574.532 227L576.532 227L576.532 194.273L574.532 194.273L572.532 194.273L572.532 227L574.532 227ZM574.532 194.273L574.532 196.273L584.951 196.273L584.951 194.273L584.951 192.273L574.532 192.273L574.532 194.273ZM584.951 194.273L582.951 194.273L582.951 227L584.951 227L586.951 227L586.951 194.273L584.951 194.273ZM584.951 227L584.951 225L574.532 225L574.532 227L574.532 229L584.951 229L584.951 227ZM579.752 190.459L579.752 188.459C578.777 188.459 578.006 188.155 577.334 187.537L575.981 189.01L574.628 190.483C576.058 191.797 577.802 192.459 579.752 192.459L579.752 190.459ZM575.981 189.01L577.345 187.547C576.68 186.927 576.404 186.27 576.404 185.473L574.404 185.473L572.404 185.473C572.404 187.432 573.18 189.133 574.617 190.473L575.981 189.01ZM574.404 185.473L576.404 185.473C576.404 184.698 576.674 184.059 577.334 183.451L575.981 181.979L574.628 180.506C573.186 181.831 572.404 183.521 572.404 185.473L574.404 185.473ZM575.981 181.979L577.345 183.441C578.019 182.813 578.785 182.509 579.752 182.509L579.752 180.509L579.752 178.509C577.793 178.509 576.046 179.184 574.617 180.516L575.981 181.979ZM579.752 180.509L579.752 182.509C580.739 182.509 581.499 182.817 582.15 183.432L583.524 181.979L584.898 180.525C583.475 179.181 581.721 178.509 579.752 178.509L579.752 180.509ZM583.524 181.979L582.17 183.451C582.831 184.059 583.1 184.698 583.1 185.473L585.1 185.473L587.1 185.473C587.1 183.521 586.318 181.831 584.877 180.506L583.524 181.979ZM585.1 185.473L583.1 185.473C583.1 186.27 582.825 186.927 582.16 187.547L583.524 189.01L584.888 190.473C586.325 189.133 587.1 187.432 587.1 185.473L585.1 185.473ZM583.524 189.01L582.161 187.547C581.511 188.152 580.747 188.459 579.752 188.459L579.752 190.459L579.752 192.459C581.712 192.459 583.463 191.8 584.887 190.473L583.524 189.01ZM601.575 225.487L600.574 227.219L600.578 227.221L601.575 225.487ZM595.907 219.564L594.133 220.486L594.135 220.49L595.907 219.564ZM595.907 201.922L594.137 200.992L594.135 200.996L595.907 201.922ZM601.596 195.977L600.6 194.243L600.595 194.246L601.596 195.977ZM618.344 195.487L617.467 197.285L617.472 197.287L618.344 195.487ZM623.628 200.132L621.936 201.2L621.941 201.207L621.945 201.214L623.628 200.132ZM625.652 207.142L625.652 209.142L627.705 209.142L627.651 207.089L625.652 207.142ZM615.915 207.142L613.928 207.378L614.138 209.142L615.915 209.142L615.915 207.142ZM614.21 203.2L612.775 204.593L612.78 204.598L612.785 204.604L614.21 203.2ZM607.413 202.795L608.597 204.407L608.605 204.402L608.613 204.395L607.413 202.795ZM605.282 205.778L603.417 205.056L603.413 205.067L605.282 205.778ZM605.282 215.537L603.408 216.235L603.413 216.247L603.417 216.259L605.282 215.537ZM607.413 218.541L606.213 220.141L606.221 220.147L606.229 220.153L607.413 218.541ZM613.145 218.925L612.185 217.17L612.178 217.174L612.171 217.178L613.145 218.925ZM614.998 217.114L616.708 218.152L616.712 218.145L616.716 218.138L614.998 217.114ZM615.915 214.173L615.915 212.173L614.124 212.173L613.927 213.952L615.915 214.173ZM625.652 214.173L627.65 214.247L627.727 212.173L625.652 212.173L625.652 214.173ZM623.628 221.247L621.928 220.194L621.922 220.202L623.628 221.247ZM618.407 225.956L619.297 227.747L619.302 227.745L618.407 225.956ZM610.46 227.618L610.46 225.618C607.284 225.618 604.682 224.966 602.572 223.753L601.575 225.487L600.578 227.221C603.411 228.849 606.732 229.618 610.46 229.618L610.46 227.618ZM601.575 225.487L602.576 223.756C600.449 222.526 598.826 220.832 597.68 218.638L595.907 219.564L594.135 220.49C595.631 223.353 597.787 225.607 600.574 227.219L601.575 225.487ZM595.907 219.564L597.682 218.642C596.532 216.428 595.926 213.813 595.926 210.743L593.926 210.743L591.926 210.743C591.926 214.349 592.641 217.615 594.133 220.486L595.907 219.564ZM593.926 210.743L595.926 210.743C595.926 207.657 596.533 205.044 597.68 202.848L595.907 201.922L594.135 200.996C592.64 203.856 591.926 207.125 591.926 210.743L593.926 210.743ZM595.907 201.922L597.678 202.852C598.84 200.64 600.471 198.938 602.597 197.709L601.596 195.977L600.595 194.246C597.807 195.858 595.645 198.119 594.137 200.992L595.907 201.922ZM601.596 195.977L602.593 197.711C604.706 196.497 607.295 195.847 610.439 195.847L610.439 193.847L610.439 191.847C606.736 191.847 603.43 192.617 600.6 194.243L601.596 195.977ZM610.439 193.847L610.439 195.847C613.224 195.847 615.548 196.35 617.467 197.285L618.344 195.487L619.22 193.689C616.651 192.437 613.705 191.847 610.439 191.847L610.439 193.847ZM618.344 195.487L617.472 197.287C619.415 198.228 620.884 199.532 621.936 201.2L623.628 200.132L625.319 199.065C623.843 196.727 621.789 194.934 619.215 193.687L618.344 195.487ZM623.628 200.132L621.945 201.214C623 202.855 623.59 204.825 623.652 207.195L625.652 207.142L627.651 207.089C627.572 204.09 626.812 201.387 625.31 199.051L623.628 200.132ZM625.652 207.142L625.652 205.142L615.915 205.142L615.915 207.142L615.915 209.142L625.652 209.142L625.652 207.142ZM615.915 207.142L617.901 206.906C617.663 204.907 616.958 203.14 615.635 201.797L614.21 203.2L612.785 204.604C613.337 205.164 613.768 206.024 613.928 207.378L615.915 207.142ZM614.21 203.2L615.645 201.808C614.297 200.418 612.546 199.773 610.588 199.773L610.588 201.773L610.588 203.773C611.612 203.773 612.277 204.08 612.775 204.593L614.21 203.2ZM610.588 201.773L610.588 199.773C608.977 199.773 607.491 200.237 606.213 201.195L607.413 202.795L608.613 204.395C609.154 203.99 609.784 203.773 610.588 203.773L610.588 201.773ZM607.413 202.795L606.229 201.183C604.943 202.128 604.031 203.47 603.417 205.056L605.282 205.778L607.148 206.5C607.556 205.444 608.065 204.798 608.597 204.407L607.413 202.795ZM605.282 205.778L603.413 205.067C602.803 206.67 602.537 208.548 602.537 210.636L604.537 210.636L606.537 210.636C606.537 208.861 606.767 207.501 607.152 206.49L605.282 205.778ZM604.537 210.636L602.537 210.636C602.537 212.727 602.804 214.612 603.408 216.235L605.282 215.537L607.157 214.839C606.766 213.791 606.537 212.409 606.537 210.636L604.537 210.636ZM605.282 215.537L603.417 216.259C604.031 217.843 604.939 219.185 606.213 220.141L607.413 218.541L608.613 216.941C608.069 216.533 607.557 215.873 607.148 214.815L605.282 215.537ZM607.413 218.541L606.229 220.153C607.506 221.091 608.986 221.543 610.588 221.543L610.588 219.543L610.588 217.543C609.774 217.543 609.138 217.327 608.597 216.929L607.413 218.541ZM610.588 219.543L610.588 221.543C611.846 221.543 613.042 221.272 614.119 220.671L613.145 218.925L612.171 217.178C611.77 217.401 611.262 217.543 610.588 217.543L610.588 219.543ZM613.145 218.925L614.105 220.679C615.192 220.084 616.058 219.221 616.708 218.152L614.998 217.114L613.289 216.076C612.972 216.597 612.603 216.941 612.185 217.17L613.145 218.925ZM614.998 217.114L616.716 218.138C617.375 217.034 617.75 215.766 617.902 214.394L615.915 214.173L613.927 213.952C613.823 214.882 613.588 215.574 613.281 216.089L614.998 217.114ZM615.915 214.173L615.915 216.173L625.652 216.173L625.652 214.173L625.652 212.173L615.915 212.173L615.915 214.173ZM625.652 214.173L623.653 214.1C623.565 216.5 622.971 218.511 621.928 220.194L623.628 221.247L625.328 222.301C626.785 219.95 627.54 217.244 627.65 214.247L625.652 214.173ZM623.628 221.247L621.922 220.202C620.894 221.881 619.444 223.202 617.513 224.167L618.407 225.956L619.302 227.745C621.86 226.466 623.89 224.648 625.333 222.292L623.628 221.247ZM618.407 225.956L617.518 224.165C615.621 225.107 613.29 225.618 610.46 225.618L610.46 227.618L610.46 229.618C613.767 229.618 616.734 229.021 619.297 227.747L618.407 225.956ZM641.018 225.594L640.052 227.345L640.064 227.351L641.018 225.594ZM635.308 219.777L633.536 220.703L633.542 220.715L635.308 219.777ZM635.33 201.901L637.098 202.835L637.1 202.83L635.33 201.901ZM640.976 195.977L641.978 197.708L641.985 197.704L640.976 195.977ZM655.955 194.933L656.657 193.061L656.657 193.061L655.955 194.933ZM664.243 203.413L662.37 204.114L662.371 204.118L664.243 203.413ZM665.415 213.151L665.415 215.151L667.415 215.151L667.415 213.151L665.415 213.151ZM636.97 213.151L634.97 213.151L634.97 215.151L636.97 215.151L636.97 213.151ZM636.97 207.099L636.97 205.099L634.97 205.099L634.97 207.099L636.97 207.099ZM655.72 207.099L655.72 209.099L657.746 209.099L657.72 207.074L655.72 207.099ZM652.822 202.114L651.839 203.855L651.856 203.865L651.873 203.874L652.822 202.114ZM646.643 202.156L647.612 203.906L647.623 203.9L647.633 203.894L646.643 202.156ZM644.449 204.266L646.154 205.311L646.158 205.305L646.161 205.299L644.449 204.266ZM643.597 207.27L641.597 207.219L641.597 207.245L641.597 207.27L643.597 207.27ZM644.385 216.943L642.611 217.867L642.617 217.878L644.385 216.943ZM646.622 219.266L645.627 221.001L645.627 221.001L646.622 219.266ZM652.588 219.713L653.231 221.607L653.231 221.607L652.588 219.713ZM654.527 218.584L655.882 220.055L655.882 220.055L654.527 218.584ZM655.741 216.751L655.799 214.752L654.367 214.711L653.867 216.053L655.741 216.751ZM665.308 217.028L667.275 217.393L667.701 215.097L665.366 215.029L665.308 217.028ZM662.687 222.632L661.162 221.338L661.161 221.34L662.687 222.632ZM657.425 226.318L658.165 228.176L658.176 228.172L657.425 226.318ZM649.882 227.618L649.882 225.618C646.722 225.618 644.11 224.996 641.973 223.836L641.018 225.594L640.064 227.351C642.899 228.89 646.195 229.618 649.882 229.618L649.882 227.618ZM641.018 225.594L641.985 223.843C639.856 222.668 638.229 221.013 637.075 218.839L635.308 219.777L633.542 220.715C635.058 223.569 637.238 225.792 640.052 227.345L641.018 225.594ZM635.308 219.777L637.081 218.851C635.939 216.665 635.327 213.992 635.327 210.764L633.327 210.764L631.327 210.764C631.327 214.497 632.036 217.833 633.536 220.703L635.308 219.777ZM633.327 210.764L635.327 210.764C635.327 207.65 635.94 205.027 637.098 202.835L635.33 201.901L633.561 200.967C632.048 203.831 631.327 207.117 631.327 210.764L633.327 210.764ZM635.33 201.901L637.1 202.83C638.264 200.614 639.884 198.921 641.978 197.708L640.976 195.977L639.974 194.246C637.21 195.846 635.065 198.102 633.559 200.971L635.33 201.901ZM640.976 195.977L641.985 197.704C644.059 196.491 646.561 195.847 649.562 195.847L649.562 193.847L649.562 191.847C645.974 191.847 642.75 192.623 639.966 194.251L640.976 195.977ZM649.562 193.847L649.562 195.847C651.683 195.847 653.572 196.176 655.252 196.806L655.955 194.933L656.657 193.061C654.473 192.242 652.101 191.847 649.562 191.847L649.562 193.847ZM655.955 194.933L655.252 196.806C656.923 197.432 658.344 198.349 659.54 199.558L660.962 198.151L662.383 196.743C660.767 195.111 658.85 193.883 656.657 193.061L655.955 194.933ZM660.962 198.151L659.54 199.558C660.726 200.755 661.676 202.26 662.37 204.114L664.243 203.413L666.116 202.713C665.247 200.39 664.01 198.387 662.383 196.743L660.962 198.151ZM664.243 203.413L662.371 204.118C663.052 205.925 663.415 208.058 663.415 210.551L665.415 210.551L667.415 210.551C667.415 207.675 666.996 205.05 666.115 202.708L664.243 203.413ZM665.415 210.551L663.415 210.551L663.415 213.151L665.415 213.151L667.415 213.151L667.415 210.551L665.415 210.551ZM665.415 213.151L665.415 211.151L636.97 211.151L636.97 213.151L636.97 215.151L665.415 215.151L665.415 213.151ZM636.97 213.151L638.97 213.151L638.97 207.099L636.97 207.099L634.97 207.099L634.97 213.151L636.97 213.151ZM636.97 207.099L636.97 209.099L655.72 209.099L655.72 207.099L655.72 205.099L636.97 205.099L636.97 207.099ZM655.72 207.099L657.72 207.074C657.702 205.653 657.36 204.318 656.654 203.121L654.932 204.138L653.209 205.154C653.526 205.691 653.71 206.33 653.72 207.125L655.72 207.099ZM654.932 204.138L656.654 203.121C655.956 201.938 654.984 201.008 653.772 200.354L652.822 202.114L651.873 203.874C652.451 204.186 652.885 204.605 653.209 205.154L654.932 204.138ZM652.822 202.114L653.806 200.372C652.586 199.683 651.222 199.368 649.776 199.368L649.776 201.368L649.776 203.368C650.63 203.368 651.298 203.55 651.839 203.855L652.822 202.114ZM649.776 201.368L649.776 199.368C648.298 199.368 646.907 199.705 645.654 200.418L646.643 202.156L647.633 203.894C648.226 203.557 648.923 203.368 649.776 203.368L649.776 201.368ZM646.643 202.156L645.674 200.407C644.448 201.086 643.459 202.035 642.736 203.233L644.449 204.266L646.161 205.299C646.518 204.707 646.992 204.249 647.612 203.906L646.643 202.156ZM644.449 204.266L642.744 203.221C642.004 204.427 641.634 205.777 641.597 207.219L643.597 207.27L645.596 207.321C645.616 206.519 645.814 205.866 646.154 205.311L644.449 204.266ZM643.597 207.27L641.597 207.27L641.597 213.428L643.597 213.428L645.597 213.428L645.597 207.27L643.597 207.27ZM643.597 213.428L641.597 213.428C641.597 215.029 641.913 216.528 642.611 217.867L644.385 216.943L646.159 216.019C645.806 215.342 645.597 214.497 645.597 213.428L643.597 213.428ZM644.385 216.943L642.617 217.878C643.317 219.203 644.33 220.256 645.627 221.001L646.622 219.266L647.617 217.531C646.983 217.167 646.504 216.672 646.153 216.009L644.385 216.943ZM646.622 219.266L645.627 221.001C646.951 221.76 648.459 222.097 650.074 222.097L650.074 220.097L650.074 218.097C649.018 218.097 648.225 217.879 647.617 217.531L646.622 219.266ZM650.074 220.097L650.074 222.097C651.181 222.097 652.241 221.943 653.231 221.607L652.588 219.713L651.945 217.819C651.43 217.994 650.813 218.097 650.074 218.097L650.074 220.097ZM652.588 219.713L653.231 221.607C654.226 221.269 655.12 220.756 655.882 220.055L654.527 218.584L653.172 217.113C652.854 217.406 652.456 217.646 651.945 217.819L652.588 219.713ZM654.527 218.584L655.882 220.055C656.666 219.333 657.242 218.453 657.616 217.45L655.741 216.751L653.867 216.053C653.701 216.499 653.468 216.84 653.172 217.113L654.527 218.584ZM655.741 216.751L655.684 218.751L665.25 219.028L665.308 217.028L665.366 215.029L655.799 214.752L655.741 216.751ZM665.308 217.028L663.342 216.664C663.005 218.482 662.276 220.026 661.162 221.338L662.687 222.632L664.213 223.926C665.798 222.057 666.816 219.864 667.275 217.393L665.308 217.028ZM662.687 222.632L661.161 221.34C660.062 222.638 658.588 223.689 656.674 224.465L657.425 226.318L658.176 228.172C660.608 227.186 662.643 225.78 664.214 223.925L662.687 222.632ZM657.425 226.318L656.684 224.46C654.792 225.215 652.538 225.618 649.882 225.618L649.882 227.618L649.882 229.618C652.937 229.618 655.711 229.155 658.165 228.176L657.425 226.318ZM702.909 204.266L702.962 206.265L705.077 206.208L704.902 204.1L702.909 204.266ZM693.342 204.521L691.363 204.81L691.619 206.568L693.395 206.521L693.342 204.521ZM692.532 202.71L690.982 203.974L690.991 203.985L690.999 203.995L692.532 202.71ZM690.806 201.453L689.987 203.278L690.009 203.288L690.032 203.297L690.806 201.453ZM685.288 201.709L684.302 199.969L684.296 199.972L684.289 199.976L685.288 201.709ZM684.052 203.669L686.052 203.713L686.052 203.674L686.052 203.635L684.052 203.669ZM684.819 205.331L683.488 206.824L683.498 206.832L683.508 206.841L684.819 205.331ZM687.696 206.46L687.292 208.419L687.308 208.422L687.324 208.425L687.696 206.46ZM694.002 207.653L694.378 205.689L694.374 205.688L694.002 207.653ZM701.289 210.764L699.943 212.243L699.949 212.249L701.289 210.764ZM703.718 216.517L705.718 216.53L705.718 216.517L705.718 216.505L703.718 216.517ZM701.715 222.376L700.15 221.132L700.143 221.14L701.715 222.376ZM696.346 226.254L697.089 228.111L697.099 228.107L696.346 226.254ZM677.49 224.741L676.321 226.365L676.331 226.372L677.49 224.741ZM672.887 216.986L672.838 214.986L670.643 215.041L670.901 217.221L672.887 216.986ZM683.178 216.73L685.143 216.356L684.826 214.689L683.129 214.731L683.178 216.73ZM684.947 219.457L686.045 217.786L686.045 217.786L684.947 219.457ZM691.85 219.649L690.83 217.929L690.83 217.929L691.85 219.649ZM693.129 217.668L695.128 217.702L695.129 217.666L695.128 217.629L693.129 217.668ZM692.149 215.899L690.99 217.529L691.002 217.538L691.014 217.546L692.149 215.899ZM689.144 214.834L688.77 216.799L688.776 216.8L689.144 214.834ZM683.434 213.747L683.808 211.782L683.8 211.781L683.792 211.779L683.434 213.747ZM676.105 210.445L674.684 211.853L674.69 211.859L676.105 210.445ZM673.718 204.266L675.718 204.277L675.718 204.265L675.718 204.253L673.718 204.266ZM675.465 198.662L677.057 199.874L677.062 199.867L675.465 198.662ZM680.494 195.082L679.785 193.212L679.785 193.212L680.494 195.082ZM698.669 196.638L697.492 198.255L697.498 198.259L698.669 196.638ZM702.909 204.266L702.855 202.266L693.288 202.522L693.342 204.521L693.395 206.521L702.962 206.265L702.909 204.266ZM693.342 204.521L695.321 204.233C695.168 203.186 694.745 202.237 694.065 201.426L692.532 202.71L690.999 203.995C691.2 204.235 691.317 204.493 691.363 204.81L693.342 204.521ZM692.532 202.71L694.082 201.446C693.413 200.626 692.56 200.021 691.581 199.609L690.806 201.453L690.032 203.297C690.473 203.482 690.77 203.715 690.982 203.974L692.532 202.71ZM690.806 201.453L691.625 199.629C690.624 199.179 689.525 198.984 688.377 198.984L688.377 200.984L688.377 202.984C689.076 202.984 689.597 203.102 689.987 203.278L690.806 201.453ZM688.377 200.984L688.377 198.984C686.904 198.984 685.517 199.28 684.302 199.969L685.288 201.709L686.274 203.449C686.763 203.172 687.436 202.984 688.377 202.984L688.377 200.984ZM685.288 201.709L684.289 199.976C682.952 200.746 682.023 202.012 682.052 203.704L684.052 203.669L686.052 203.635C686.051 203.601 686.055 203.594 686.053 203.603C686.05 203.613 686.045 203.623 686.042 203.628C686.036 203.637 686.08 203.561 686.286 203.442L685.288 201.709ZM684.052 203.669L682.053 203.625C682.024 204.913 682.575 206.01 683.488 206.824L684.819 205.331L686.15 203.838C686.061 203.759 686.046 203.718 686.049 203.726C686.05 203.728 686.052 203.732 686.052 203.736C686.053 203.739 686.051 203.733 686.052 203.713L684.052 203.669ZM684.819 205.331L683.508 206.841C684.455 207.663 685.845 208.121 687.292 208.419L687.696 206.46L688.099 204.501C686.791 204.232 686.263 203.936 686.13 203.821L684.819 205.331ZM687.696 206.46L687.324 208.425L693.631 209.619L694.002 207.653L694.374 205.688L688.067 204.495L687.696 206.46ZM694.002 207.653L693.627 209.618C696.713 210.208 698.735 211.143 699.943 212.243L701.289 210.764L702.636 209.286C700.662 207.488 697.826 206.349 694.378 205.689L694.002 207.653ZM701.289 210.764L699.949 212.249C701.091 213.28 701.707 214.64 701.718 216.529L703.718 216.517L705.718 216.505C705.701 213.622 704.697 211.146 702.629 209.28L701.289 210.764ZM703.718 216.517L701.718 216.504C701.707 218.329 701.176 219.841 700.15 221.132L701.715 222.376L703.281 223.621C704.897 221.588 705.701 219.194 705.718 216.53L703.718 216.517ZM701.715 222.376L700.143 221.14C699.084 222.488 697.596 223.588 695.593 224.401L696.346 226.254L697.099 228.107C699.641 227.074 701.734 225.589 703.288 223.613L701.715 222.376ZM696.346 226.254L695.603 224.397C693.608 225.195 691.268 225.618 688.548 225.618L688.548 227.618L688.548 229.618C691.68 229.618 694.539 229.131 697.089 228.111L696.346 226.254ZM688.548 227.618L688.548 225.618C684.124 225.618 680.895 224.708 678.648 223.111L677.49 224.741L676.331 226.372C679.482 228.611 683.625 229.618 688.548 229.618L688.548 227.618ZM677.49 224.741L678.658 223.118C676.421 221.509 675.19 219.423 674.873 216.751L672.887 216.986L670.901 217.221C671.352 221.026 673.189 224.111 676.321 226.365L677.49 224.741ZM672.887 216.986L672.937 218.985L683.228 218.729L683.178 216.73L683.129 214.731L672.838 214.986L672.887 216.986ZM683.178 216.73L681.214 217.104C681.535 218.79 682.412 220.185 683.849 221.129L684.947 219.457L686.045 217.786C685.578 217.479 685.277 217.057 685.143 216.356L683.178 216.73ZM684.947 219.457L683.849 221.129C685.211 222.024 686.838 222.395 688.59 222.395L688.59 220.395L688.59 218.395C687.389 218.395 686.586 218.141 686.045 217.786L684.947 219.457ZM688.59 220.395L688.59 222.395C690.157 222.395 691.63 222.105 692.871 221.369L691.85 219.649L690.83 217.929C690.395 218.187 689.694 218.395 688.59 218.395L688.59 220.395ZM691.85 219.649L692.871 221.369C694.178 220.594 695.1 219.356 695.128 217.702L693.129 217.668L691.129 217.633C691.128 217.67 691.124 217.685 691.123 217.686C691.123 217.687 691.123 217.689 691.118 217.697C691.108 217.712 691.045 217.801 690.83 217.929L691.85 219.649ZM693.129 217.668L695.128 217.629C695.101 216.209 694.421 215.036 693.283 214.252L692.149 215.899L691.014 217.546C691.068 217.583 691.097 217.611 691.111 217.626C691.124 217.64 691.126 217.645 691.124 217.641C691.122 217.637 691.121 217.635 691.122 217.639C691.124 217.644 691.128 217.664 691.129 217.706L693.129 217.668ZM692.149 215.899L693.308 214.269C692.316 213.564 690.975 213.142 689.513 212.868L689.144 214.834L688.776 216.8C690.041 217.037 690.703 217.325 690.99 217.529L692.149 215.899ZM689.144 214.834L689.518 212.869L683.808 211.782L683.434 213.747L683.06 215.712L688.77 216.799L689.144 214.834ZM683.434 213.747L683.792 211.779C680.733 211.223 678.73 210.242 677.519 209.03L676.105 210.445L674.69 211.859C676.689 213.858 679.573 215.078 683.076 215.715L683.434 213.747ZM676.105 210.445L677.525 209.037C676.332 207.833 675.707 206.302 675.718 204.277L673.718 204.266L671.718 204.254C671.701 207.229 672.667 209.818 674.684 211.853L676.105 210.445ZM673.718 204.266L675.718 204.253C675.706 202.45 676.178 201.027 677.057 199.874L675.465 198.662L673.874 197.45C672.394 199.394 671.702 201.707 671.718 204.279L673.718 204.266ZM675.465 198.662L677.062 199.867C677.974 198.658 679.315 197.668 681.203 196.953L680.494 195.082L679.785 193.212C677.326 194.144 675.315 195.541 673.869 197.457L675.465 198.662ZM680.494 195.082L681.203 196.953C683.097 196.234 685.41 195.847 688.186 195.847L688.186 193.847L688.186 191.847C685.052 191.847 682.237 192.283 679.785 193.212L680.494 195.082ZM688.186 193.847L688.186 195.847C692.359 195.847 695.39 196.725 697.492 198.255L698.669 196.638L699.845 195.021C696.834 192.829 692.875 191.847 688.186 191.847L688.186 193.847ZM698.669 196.638L697.498 198.259C699.565 199.752 700.692 201.755 700.915 204.432L702.909 204.266L704.902 204.1C704.585 200.299 702.886 197.217 699.839 195.016L698.669 196.638Z" fill="white" mask="url(#path-14-outside-1_41_48)"/>
</svg>
