<svg width="858" height="304" viewBox="0 0 858 304" fill="none" xmlns="http://www.w3.org/2000/svg">
<path d="M78.8256 71.0826C78.7724 53.4095 93.0561 39.0395 110.729 38.9863L740.726 37.0893C758.399 37.0361 772.769 51.3198 772.823 68.9928L773.148 176.992C773.201 194.665 758.917 209.035 741.244 209.089L385.187 210.161C381.26 210.173 377.368 210.907 373.707 212.328L358.815 218.107C355.154 219.528 351.262 220.263 347.334 220.275L324.958 220.342C321.2 220.353 317.468 219.703 313.936 218.419L294.657 211.416C291.077 210.116 287.293 209.465 283.483 209.494L111.399 210.832C93.6668 210.97 79.2037 196.662 79.1503 178.929L78.8256 71.0826Z" fill="white"/>
<path d="M521.871 178.576C515.289 178.572 508.983 177.523 502.952 175.411C496.94 173.28 492.284 170.49 488.986 167.04L492.657 159.817C495.855 163.028 500.107 165.616 505.413 167.6C510.738 169.584 516.229 170.577 521.876 170.581C529.796 170.585 535.737 169.14 539.699 166.226C543.679 163.322 545.68 159.555 545.683 154.933C545.685 151.394 544.605 148.569 542.461 146.459C540.308 144.33 537.669 142.706 534.543 141.576C531.409 140.428 527.073 139.179 521.528 137.828C514.856 136.137 509.54 134.511 505.58 132.94C501.621 131.379 498.221 128.993 495.391 125.782C492.578 122.581 491.178 118.243 491.181 112.759C491.184 108.285 492.36 104.214 494.709 100.548C497.076 96.8816 500.708 93.9496 505.604 91.7518C510.492 89.554 516.57 88.4572 523.83 88.4615C528.891 88.4644 533.84 89.1642 538.68 90.5607C543.538 91.9573 547.744 93.8853 551.29 96.3264L548.096 103.807C544.375 101.365 540.407 99.5293 536.182 98.2982C531.975 97.0762 527.859 96.4594 523.826 96.4571C516.052 96.4526 510.203 97.9529 506.296 100.958C502.38 103.945 500.425 107.795 500.422 112.508C500.42 116.057 501.491 118.909 503.644 121.056C505.788 123.212 508.482 124.864 511.708 126.012C514.952 127.142 519.315 128.382 524.796 129.724C531.295 131.341 536.547 132.94 540.561 134.501C544.566 136.044 547.966 138.412 550.751 141.586C553.536 144.742 554.927 149.024 554.923 154.425C554.921 158.9 553.708 162.97 551.286 166.637C548.882 170.303 545.195 173.217 540.207 175.359C535.237 177.511 529.131 178.58 521.871 178.576Z" fill="black"/>
<path d="M584.503 178.466C577.921 178.462 572.036 177.028 566.831 174.164C561.644 171.301 557.576 167.282 554.627 162.091C551.697 156.881 550.234 151.039 550.238 144.556C550.241 138.055 551.711 132.234 554.648 127.101C557.603 121.949 561.675 117.935 566.865 115.078C572.074 112.22 577.96 110.793 584.542 110.797C590.262 110.8 595.368 111.922 599.868 114.143C604.386 116.374 607.95 119.64 610.569 123.942L603.856 128.523C601.676 125.221 598.909 122.753 595.537 121.109C592.164 119.448 588.498 118.611 584.538 118.609C579.716 118.606 575.388 119.685 571.555 121.829C567.713 123.981 564.713 127.051 562.566 131.03C560.409 134.989 559.334 139.5 559.331 144.562C559.328 149.696 560.398 154.236 562.55 158.171C564.693 162.087 567.689 165.124 571.529 167.272C575.359 169.429 579.685 170.504 584.507 170.507C588.467 170.509 592.135 169.723 595.509 168.129C598.884 166.518 601.654 164.062 603.837 160.762L610.545 165.314C607.921 169.622 604.344 172.893 599.795 175.137C595.247 177.363 590.15 178.469 584.503 178.466Z" fill="black"/>
<path d="M634.985 110.826C643.685 110.831 650.348 113.017 654.966 117.366C659.602 121.697 661.927 128.117 661.922 136.626L661.898 177.888L653.317 177.883L653.323 167.503C651.286 170.977 648.305 173.68 644.371 175.603C640.456 177.536 635.798 178.496 630.399 178.493C622.992 178.488 617.089 176.715 612.691 173.164C608.311 169.622 606.132 164.936 606.136 159.113C606.139 153.465 608.177 148.918 612.267 145.473C616.349 142.009 622.868 140.271 631.815 140.276L652.936 140.288L652.938 136.254C652.941 130.514 651.34 126.148 648.142 123.157C644.935 120.148 640.261 118.641 634.101 118.638C629.893 118.635 625.85 119.33 621.962 120.721C618.075 122.113 614.737 124.036 611.948 126.474L607.919 119.759C611.294 116.901 615.338 114.702 620.06 113.165C624.773 111.609 629.751 110.823 634.985 110.826ZM631.797 171.415C636.857 171.418 641.193 170.265 644.816 167.938C648.457 165.62 651.163 162.275 652.925 157.893L652.932 147L632.067 146.988C620.673 146.981 614.978 150.958 614.973 158.898C614.971 162.768 616.445 165.822 619.405 168.07C622.355 170.3 626.489 171.412 631.797 171.415Z" fill="black"/>
<path d="M669.939 83.9987L678.886 84.0039L678.831 177.897L669.884 177.892L669.939 83.9987Z" fill="black"/>
<path d="M745.417 147.458L689.755 147.425C690.237 154.321 692.883 159.916 697.702 164.191C702.512 168.449 708.589 170.579 715.922 170.584C720.048 170.586 723.843 169.855 727.291 168.39C730.757 166.906 733.756 164.726 736.278 161.866L741.335 167.701C738.372 171.22 734.676 173.914 730.257 175.763C725.828 177.622 720.96 178.546 715.661 178.542C708.813 178.538 702.755 177.086 697.476 174.167C692.216 171.258 688.111 167.23 685.163 162.093C682.232 156.938 680.769 151.115 680.773 144.632C680.776 138.131 682.182 132.31 685 127.177C687.835 122.025 691.715 118.011 696.631 115.153C701.564 112.295 707.12 110.868 713.28 110.872C719.441 110.875 724.959 112.309 729.852 115.173C734.736 118.036 738.575 122.027 741.359 127.136C744.143 132.254 745.533 138.096 745.529 144.67L745.417 147.458ZM713.276 118.574C706.868 118.57 701.486 120.621 697.138 124.726C692.809 128.813 690.349 134.139 689.759 140.713L736.914 140.741C736.331 134.166 733.859 128.837 729.516 124.745C725.192 120.635 719.775 118.578 713.276 118.574Z" fill="black"/>
<path d="M475.206 177.068C467.908 177.063 462.226 175.271 458.158 171.69C454.091 168.039 452.059 162.565 452.063 155.268L452.092 106.327L472.089 106.339L472.061 155.069C472.06 157.104 472.62 158.718 473.742 159.911C474.864 161.035 476.302 161.597 478.056 161.598C480.442 161.599 482.477 161.004 484.162 159.812L489.1 173.813C487.416 174.935 485.345 175.74 482.889 176.23C480.433 176.79 477.872 177.069 475.206 177.068ZM443.76 136.108L443.769 121.162L485.132 121.186L485.123 136.132L443.76 136.108Z" fill="black"/>
<path d="M418.901 118.095C423.322 118.098 427.321 119.013 430.898 120.839C434.476 122.595 437.281 125.333 439.313 129.053C441.416 132.773 442.466 137.58 442.462 143.474L442.443 176.101L422.446 176.09L422.463 146.725C422.466 142.656 421.625 139.708 419.942 137.883C418.33 135.987 416.05 135.039 413.103 135.037C410.998 135.036 409.068 135.526 407.313 136.507C405.559 137.418 404.19 138.856 403.206 140.82C402.223 142.784 401.73 145.345 401.728 148.502L401.712 176.078L381.715 176.066L381.76 97.9713L401.758 97.9829L401.736 135.241L397.108 130.502C399.285 126.364 402.269 123.278 406.059 121.245C409.849 119.143 414.13 118.093 418.901 118.095Z" fill="black"/>
<path d="M340.647 197.408C335.174 197.404 329.947 196.77 324.966 195.504C320.055 194.238 315.846 192.376 312.339 189.918L319.61 175.924C321.994 177.82 324.94 179.296 328.448 180.35C332.026 181.475 335.499 182.038 338.867 182.04C344.269 182.043 348.164 180.853 350.551 178.468C352.938 176.154 354.133 172.752 354.136 168.261L354.14 161.526L355.202 145.528L355.106 129.425L355.112 119.006L374.162 119.017L374.135 165.642C374.128 176.447 371.212 184.445 365.385 189.634C359.558 194.822 351.312 197.414 340.647 197.408ZM337.188 173.093C332.136 173.09 327.471 171.965 323.192 169.717C318.983 167.399 315.582 164.204 312.988 160.133C310.465 155.992 309.204 151.115 309.208 145.501C309.211 139.888 310.477 135.047 313.005 130.979C315.604 126.841 319.009 123.651 323.22 121.408C327.501 119.165 332.168 118.045 337.22 118.048C342.061 118.051 346.201 119.035 349.638 121.002C353.075 122.899 355.669 125.882 357.421 129.953C359.243 134.023 360.152 139.216 360.148 145.531C360.145 151.846 359.229 157.038 357.403 161.106C355.646 165.175 353.048 168.191 349.609 170.153C346.17 172.116 342.029 173.096 337.188 173.093ZM341.933 157.203C344.319 157.205 346.424 156.715 348.249 155.733C350.144 154.752 351.618 153.385 352.672 151.631C353.796 149.878 354.358 147.843 354.36 145.528C354.361 143.212 353.801 141.177 352.679 139.422C351.628 137.668 350.155 136.334 348.261 135.42C346.437 134.437 344.333 133.945 341.947 133.943C339.561 133.942 337.421 134.432 335.526 135.413C333.631 136.324 332.121 137.656 330.998 139.41C329.944 141.163 329.417 143.198 329.416 145.513C329.414 147.829 329.939 149.864 330.991 151.619C332.112 153.373 333.62 154.743 335.514 155.726C337.408 156.709 339.548 157.202 341.933 157.203Z" fill="black"/>
<path d="M285.038 176.01L285.071 118.965L305.068 118.976L305.035 176.021L285.038 176.01ZM295.073 112.656C291.425 112.653 288.478 111.634 286.234 109.598C283.99 107.562 282.869 105.035 282.871 102.018C282.873 99.0012 283.997 96.4759 286.243 94.4424C288.49 92.4089 291.437 91.3932 295.086 91.3953C298.734 91.3975 301.681 92.3815 303.925 94.3475C306.169 96.2433 307.29 98.6997 307.289 101.717C307.287 104.874 306.163 107.505 303.916 109.609C301.74 111.642 298.792 112.658 295.073 112.656Z" fill="black"/>
<path d="M243.843 175.986L243.876 118.941L262.926 118.952L262.916 135.581L260.077 130.843C261.764 126.564 264.502 123.373 268.292 121.27C272.083 119.097 276.679 118.013 282.082 118.016L282.071 136.013C281.159 135.872 280.352 135.802 279.651 135.801C279.019 135.731 278.318 135.695 277.546 135.695C273.476 135.693 270.178 136.813 267.651 139.057C265.123 141.231 263.858 144.808 263.855 149.79L263.84 175.997L243.843 175.986Z" fill="black"/>
<path d="M170.763 156.297C170.067 156.297 169.422 156.658 169.058 157.25L158.656 174.182C157.838 175.514 158.795 177.228 160.359 177.228L199.859 177.252C199.99 177.252 200.123 177.239 200.251 177.213C211.938 174.871 220.046 171.564 225.165 166.46C239.788 151.926 243.685 134.219 229.456 119.421C228.483 118.408 228.683 116.649 229.823 115.828C231.296 114.766 233.042 113.332 234.801 111.701C242.574 103.837 246.682 90.9673 244.734 82.9478C240.687 66.2858 232.125 62.9038 220.181 62.8968L143.937 62.8524C142.335 62.8515 141.382 64.6414 142.278 65.9702L153.062 81.97C153.449 82.5448 153.511 83.2793 153.226 83.9111L134.424 125.538C133.827 126.861 134.794 128.36 136.246 128.361L154.158 128.371C155.488 128.372 156.447 129.647 156.078 130.925L142.653 177.512C142.007 179.754 145.07 181.099 146.283 179.106L186.977 112.294C187.788 110.961 186.83 109.254 185.27 109.253L170.52 109.245C169.066 109.244 168.099 107.742 168.7 106.418L178.844 84.0834C179.169 83.3687 179.881 82.91 180.666 82.9105L212.478 82.929C212.793 82.9292 213.104 83.0032 213.384 83.1493C217.702 85.4074 220.232 87.6538 220.389 90.8132C221.351 98.3794 218.094 105.256 208.564 109.125C208.332 109.219 208.081 109.267 207.831 109.267L199.875 109.262C199.173 109.262 198.522 109.629 198.16 110.231L189.06 125.362C188.259 126.695 189.218 128.392 190.773 128.393L205.102 128.401C205.213 128.401 205.324 128.41 205.433 128.429C208.697 128.999 210.663 130.03 211.424 131.782C215.913 140.681 213.617 150.964 200.418 156.178C200.191 156.268 199.943 156.314 199.698 156.314L170.763 156.297Z" fill="black"/>
<path d="M133.792 62.8465C135.107 62.8472 136.338 63.4944 137.084 64.5775L148.57 81.2532C149.366 82.4099 149.498 83.8998 148.916 85.1783L130.311 126.08C129.106 128.728 131.041 131.735 133.949 131.737L146.124 131.744C148.774 131.745 150.69 134.277 149.971 136.828L139.352 174.524C138.866 176.249 137.292 177.44 135.5 177.439L119.019 177.43C117.818 177.429 116.68 176.888 115.921 175.956L113.065 172.451C112.483 171.737 112.166 170.844 112.166 169.923L112.227 66.8339C112.228 64.6248 114.02 62.835 116.229 62.8362L133.792 62.8465Z" fill="#18C95F"/>
<path d="M380.728 252.926L380.728 216.562L389.517 216.562L389.517 231.157L403.846 231.157L403.846 216.562L412.617 216.562L412.617 252.926L403.846 252.926L403.846 238.313L389.517 238.313L389.517 252.926L380.728 252.926ZM430.361 253.44C427.497 253.44 425.035 252.855 422.975 251.683C420.927 250.499 419.347 248.854 418.234 246.747C417.133 244.628 416.583 242.172 416.583 239.378C416.583 236.573 417.133 234.116 418.234 232.009C419.347 229.891 420.927 228.245 422.975 227.073C425.035 225.89 427.497 225.298 430.361 225.298C433.226 225.298 435.682 225.89 437.73 227.073C439.79 228.245 441.37 229.891 442.471 232.009C443.583 234.116 444.14 236.573 444.14 239.378C444.14 242.172 443.583 244.628 442.471 246.747C441.37 248.854 439.79 250.499 437.73 251.683C435.682 252.855 433.226 253.44 430.361 253.44ZM430.415 246.889C431.456 246.889 432.338 246.569 433.06 245.93C433.782 245.291 434.333 244.403 434.712 243.266C435.102 242.13 435.297 240.816 435.297 239.325C435.297 237.81 435.102 236.484 434.712 235.347C434.333 234.211 433.782 233.323 433.06 232.684C432.338 232.045 431.456 231.725 430.415 231.725C429.337 231.725 428.426 232.045 427.68 232.684C426.946 233.323 426.384 234.211 425.993 235.347C425.615 236.484 425.425 237.81 425.425 239.325C425.425 240.816 425.615 242.13 425.993 243.266C426.384 244.403 426.946 245.291 427.68 245.93C428.426 246.569 429.337 246.889 430.415 246.889ZM448.088 252.926L448.088 225.653L456.344 225.653L456.344 230.66L456.646 230.66C457.214 229.003 458.173 227.695 459.522 226.736C460.872 225.777 462.482 225.298 464.352 225.298C466.246 225.298 467.867 225.783 469.217 226.754C470.566 227.724 471.424 229.026 471.791 230.66L472.076 230.66C472.585 229.038 473.579 227.742 475.058 226.771C476.538 225.789 478.284 225.298 480.296 225.298C482.877 225.298 484.972 226.126 486.582 227.784C488.192 229.429 488.997 231.69 488.997 234.566L488.997 252.926L480.314 252.926L480.314 236.555C480.314 235.194 479.965 234.158 479.267 233.448C478.568 232.726 477.663 232.364 476.55 232.364C475.354 232.364 474.413 232.755 473.727 233.536C473.052 234.306 472.715 235.342 472.715 236.644L472.715 252.926L464.37 252.926L464.37 236.466C464.37 235.199 464.026 234.199 463.34 233.465C462.653 232.731 461.748 232.364 460.623 232.364C459.866 232.364 459.197 232.548 458.617 232.915C458.037 233.27 457.581 233.779 457.25 234.442C456.93 235.105 456.77 235.886 456.77 236.786L456.77 252.926L448.088 252.926ZM506.625 253.44C503.772 253.44 501.31 252.878 499.239 251.754C497.179 250.617 495.593 249.002 494.48 246.906C493.379 244.799 492.829 242.296 492.829 239.396C492.829 236.579 493.385 234.116 494.498 232.009C495.611 229.891 497.179 228.245 499.203 227.073C501.227 225.89 503.613 225.298 506.359 225.298C508.3 225.298 510.076 225.6 511.686 226.203C513.295 226.807 514.686 227.701 515.858 228.884C517.03 230.068 517.942 231.53 518.593 233.27C519.244 234.998 519.569 236.981 519.569 239.218L519.569 241.384L495.865 241.384L495.865 236.342L511.49 236.342C511.478 235.418 511.259 234.596 510.833 233.874C510.407 233.152 509.821 232.589 509.076 232.187C508.342 231.773 507.495 231.565 506.536 231.565C505.566 231.565 504.696 231.784 503.926 232.222C503.157 232.649 502.547 233.235 502.098 233.98C501.648 234.714 501.411 235.549 501.387 236.484L501.387 241.615C501.387 242.728 501.606 243.704 502.044 244.545C502.482 245.373 503.104 246.019 503.909 246.48C504.714 246.942 505.672 247.173 506.785 247.173C507.554 247.173 508.253 247.066 508.88 246.853C509.508 246.64 510.046 246.326 510.496 245.912C510.946 245.498 511.283 244.989 511.508 244.385L519.48 244.616C519.149 246.403 518.421 247.96 517.296 249.286C516.184 250.6 514.722 251.623 512.911 252.357C511.1 253.079 509.004 253.44 506.625 253.44ZM553.401 227.464C553.283 226.162 552.756 225.15 551.821 224.428C550.898 223.694 549.578 223.327 547.862 223.327C546.725 223.327 545.778 223.475 545.021 223.771C544.263 224.067 543.695 224.475 543.316 224.996C542.937 225.505 542.742 226.091 542.73 226.754C542.706 227.298 542.813 227.778 543.05 228.192C543.298 228.606 543.653 228.973 544.115 229.293C544.589 229.601 545.157 229.873 545.82 230.11C546.483 230.346 547.228 230.553 548.057 230.731L551.182 231.441C552.981 231.832 554.567 232.353 555.94 233.004C557.325 233.655 558.485 234.43 559.42 235.33C560.367 236.229 561.084 237.265 561.569 238.437C562.054 239.609 562.303 240.923 562.315 242.379C562.303 244.675 561.723 246.646 560.575 248.291C559.426 249.937 557.775 251.197 555.621 252.073C553.478 252.949 550.892 253.387 547.862 253.387C544.819 253.387 542.168 252.931 539.907 252.02C537.646 251.109 535.888 249.724 534.634 247.865C533.379 246.007 532.734 243.657 532.698 240.816L541.114 240.816C541.185 241.988 541.499 242.965 542.055 243.746C542.612 244.527 543.375 245.119 544.346 245.521C545.328 245.924 546.465 246.125 547.755 246.125C548.939 246.125 549.945 245.965 550.773 245.646C551.614 245.326 552.259 244.882 552.709 244.314C553.159 243.746 553.389 243.095 553.401 242.361C553.389 241.674 553.176 241.088 552.762 240.603C552.348 240.106 551.709 239.68 550.845 239.325C549.992 238.958 548.903 238.62 547.577 238.313L543.778 237.425C540.629 236.703 538.149 235.537 536.338 233.927C534.527 232.305 533.627 230.115 533.639 227.357C533.627 225.108 534.231 223.137 535.45 221.445C536.67 219.752 538.356 218.432 540.511 217.485C542.665 216.538 545.121 216.065 547.879 216.065C550.697 216.065 553.141 216.544 555.212 217.503C557.296 218.45 558.912 219.782 560.06 221.498C561.208 223.214 561.794 225.203 561.818 227.464L553.401 227.464ZM579.002 253.44C576.149 253.44 573.687 252.878 571.616 251.754C569.556 250.617 567.97 249.002 566.857 246.906C565.756 244.799 565.206 242.296 565.206 239.396C565.206 236.579 565.762 234.116 566.875 232.009C567.988 229.891 569.556 228.245 571.58 227.073C573.604 225.89 575.99 225.298 578.736 225.298C580.677 225.298 582.453 225.6 584.063 226.203C585.672 226.807 587.063 227.701 588.235 228.884C589.407 230.068 590.318 231.53 590.97 233.27C591.621 234.998 591.946 236.981 591.946 239.218L591.946 241.384L568.242 241.384L568.242 236.342L583.867 236.342C583.855 235.418 583.636 234.596 583.21 233.874C582.784 233.152 582.198 232.589 581.452 232.187C580.719 231.773 579.872 231.565 578.913 231.565C577.943 231.565 577.073 231.784 576.303 232.222C575.534 232.649 574.924 233.235 574.474 233.98C574.025 234.714 573.788 235.549 573.764 236.484L573.764 241.615C573.764 242.728 573.983 243.704 574.421 244.545C574.859 245.373 575.481 246.019 576.286 246.48C577.09 246.942 578.049 247.173 579.162 247.173C579.931 247.173 580.63 247.066 581.257 246.853C581.885 246.64 582.423 246.326 582.873 245.912C583.323 245.498 583.66 244.989 583.885 244.385L591.857 244.616C591.526 246.403 590.798 247.96 589.673 249.286C588.561 250.6 587.099 251.623 585.288 252.357C583.477 253.079 581.381 253.44 579.002 253.44ZM595.881 252.926L595.881 225.653L604.314 225.653L604.314 230.624L604.599 230.624C605.096 228.825 605.907 227.488 607.031 226.612C608.156 225.724 609.464 225.28 610.955 225.28C611.358 225.28 611.772 225.31 612.198 225.369C612.624 225.416 613.021 225.493 613.388 225.6L613.388 233.146C612.973 233.004 612.429 232.891 611.754 232.808C611.091 232.726 610.499 232.684 609.979 232.684C608.949 232.684 608.02 232.915 607.191 233.377C606.374 233.826 605.729 234.46 605.256 235.276C604.794 236.081 604.563 237.028 604.563 238.117L604.563 252.926L595.881 252.926ZM643.712 225.653L634.354 252.926L624.411 252.926L615.072 225.653L624.216 225.653L629.241 244.438L629.525 244.438L634.567 225.653L643.712 225.653ZM646.541 252.926L646.541 225.653L655.223 225.653L655.223 252.926L646.541 252.926ZM650.891 222.475C649.672 222.475 648.624 222.072 647.748 221.267C646.872 220.45 646.434 219.468 646.434 218.32C646.434 217.183 646.872 216.213 647.748 215.408C648.624 214.591 649.672 214.183 650.891 214.183C652.122 214.183 653.169 214.591 654.034 215.408C654.91 216.213 655.348 217.183 655.348 218.32C655.348 219.468 654.91 220.45 654.034 221.267C653.169 222.072 652.122 222.475 650.891 222.475ZM672.981 253.44C670.104 253.44 667.636 252.849 665.576 251.665C663.529 250.481 661.954 248.836 660.853 246.729C659.753 244.61 659.202 242.16 659.202 239.378C659.202 236.584 659.753 234.134 660.853 232.027C661.966 229.908 663.546 228.257 665.594 227.073C667.654 225.89 670.11 225.298 672.963 225.298C675.484 225.298 677.68 225.753 679.55 226.665C681.432 227.576 682.9 228.867 683.954 230.536C685.019 232.193 685.581 234.14 685.64 236.377L677.526 236.377C677.36 234.98 676.887 233.886 676.106 233.092C675.336 232.299 674.33 231.903 673.087 231.903C672.081 231.903 671.199 232.187 670.441 232.755C669.684 233.311 669.092 234.14 668.666 235.241C668.252 236.33 668.044 237.679 668.044 239.289C668.044 240.899 668.252 242.26 668.666 243.373C669.092 244.474 669.684 245.308 670.441 245.877C671.199 246.433 672.081 246.711 673.087 246.711C673.892 246.711 674.602 246.539 675.218 246.196C675.845 245.853 676.36 245.35 676.762 244.687C677.165 244.012 677.419 243.195 677.526 242.237L685.64 242.237C685.557 244.486 684.995 246.451 683.954 248.132C682.924 249.812 681.474 251.12 679.603 252.056C677.745 252.979 675.537 253.44 672.981 253.44ZM702.332 253.44C699.48 253.44 697.017 252.878 694.946 251.754C692.886 250.617 691.3 249.002 690.187 246.906C689.087 244.799 688.536 242.296 688.536 239.396C688.536 236.579 689.092 234.116 690.205 232.009C691.318 229.891 692.886 228.245 694.91 227.073C696.935 225.89 699.32 225.298 702.066 225.298C704.007 225.298 705.783 225.6 707.393 226.203C709.002 226.807 710.393 227.701 711.565 228.884C712.737 230.068 713.649 231.53 714.3 233.27C714.951 234.998 715.276 236.981 715.276 239.218L715.276 241.384L691.572 241.384L691.572 236.342L707.197 236.342C707.185 235.418 706.966 234.596 706.54 233.874C706.114 233.152 705.528 232.589 704.783 232.187C704.049 231.773 703.202 231.565 702.243 231.565C701.273 231.565 700.403 231.784 699.633 232.222C698.864 232.649 698.254 233.235 697.805 233.98C697.355 234.714 697.118 235.549 697.094 236.484L697.094 241.615C697.094 242.728 697.313 243.704 697.751 244.545C698.189 245.373 698.811 246.019 699.616 246.48C700.421 246.942 701.379 247.173 702.492 247.173C703.261 247.173 703.96 247.066 704.587 246.853C705.215 246.64 705.753 246.326 706.203 245.912C706.653 245.498 706.99 244.989 707.215 244.385L715.187 244.616C714.856 246.403 714.128 247.96 713.003 249.286C711.891 250.6 710.429 251.623 708.618 252.357C706.807 253.079 704.712 253.44 702.332 253.44ZM743.021 233.98L735.049 234.193C734.966 233.625 734.741 233.122 734.374 232.684C734.007 232.234 733.528 231.885 732.936 231.637C732.356 231.376 731.681 231.246 730.912 231.246C729.905 231.246 729.047 231.447 728.337 231.85C727.639 232.252 727.295 232.797 727.307 233.483C727.295 234.016 727.508 234.477 727.946 234.868C728.396 235.259 729.195 235.572 730.343 235.809L735.599 236.803C738.322 237.324 740.346 238.188 741.672 239.396C743.009 240.603 743.684 242.201 743.696 244.19C743.684 246.06 743.128 247.688 742.027 249.073C740.938 250.458 739.446 251.535 737.552 252.304C735.658 253.062 733.492 253.44 731.054 253.44C727.159 253.44 724.088 252.641 721.838 251.043C719.601 249.434 718.323 247.279 718.003 244.58L726.579 244.367C726.769 245.362 727.26 246.119 728.053 246.64C728.846 247.161 729.858 247.421 731.089 247.421C732.202 247.421 733.107 247.214 733.806 246.8C734.504 246.386 734.859 245.835 734.871 245.149C734.859 244.533 734.587 244.042 734.054 243.675C733.522 243.296 732.687 243 731.551 242.787L726.792 241.882C724.058 241.384 722.022 240.467 720.684 239.129C719.347 237.78 718.684 236.064 718.696 233.98C718.684 232.157 719.169 230.601 720.152 229.311C721.134 228.008 722.531 227.014 724.342 226.328C726.153 225.641 728.29 225.298 730.752 225.298C734.445 225.298 737.357 226.073 739.488 227.624C741.618 229.163 742.796 231.281 743.021 233.98Z" fill="#18C95F"/>
</svg>
